<?xml version="1.0" encoding="UTF-8" standalone="no"?>
<!-- Created with Inkscape (http://www.inkscape.org/) -->

<svg
   width="59.928001mm"
   height="23.309999mm"
   viewBox="0 0 59.928001 23.309999"
   version="1.1"
   id="svg3748"
   sodipodi:docname="1.4.svg"
   inkscape:version="1.2.2 (732a01da63, 2022-12-09)"
   xmlns:inkscape="http://www.inkscape.org/namespaces/inkscape"
   xmlns:sodipodi="http://sodipodi.sourceforge.net/DTD/sodipodi-0.dtd"
   xmlns="http://www.w3.org/2000/svg"
   xmlns:svg="http://www.w3.org/2000/svg">
  <sodipodi:namedview
     id="namedview3750"
     pagecolor="#ffffff"
     bordercolor="#000000"
     borderopacity="0.25"
     inkscape:showpageshadow="2"
     inkscape:pageopacity="0.0"
     inkscape:pagecheckerboard="0"
     inkscape:deskcolor="#d1d1d1"
     inkscape:document-units="mm"
     showgrid="false"
     inkscape:zoom="3.9931908"
     inkscape:cx="108.43459"
     inkscape:cy="6.3858707"
     inkscape:window-width="1920"
     inkscape:window-height="1001"
     inkscape:window-x="-9"
     inkscape:window-y="-9"
     inkscape:window-maximized="1"
     inkscape:current-layer="g4318"
     showguides="true">
    <sodipodi:guide
       position="-0.19877588,23.243741"
       orientation="0,-1"
       id="guide15157"
       inkscape:locked="false" />
    <sodipodi:guide
       position="14.576898,33.116276"
       orientation="0,-1"
       id="guide15159"
       inkscape:locked="false" />
  </sodipodi:namedview>
  <defs
     id="defs3745" />
  <g
     inkscape:label="Capa 1"
     inkscape:groupmode="layer"
     id="layer1"
     transform="translate(194.67794,-120.68818)">
    <g
       id="g4318"
       transform="matrix(0.26458333,0,0,0.26458333,-258.62773,95.076513)"
       inkscape:export-filename="1.4.svg"
       inkscape:export-xdpi="96"
       inkscape:export-ydpi="96">
      <g
         id="g9757"
         transform="matrix(0.6930799,0,0,0.6930799,74.049332,46.953422)">
        <g
           id="g4288"
           style="opacity:1"
           transform="matrix(0.92494701,0,0,0.92494701,18.225406,12.93163)">
          <path
             class="st3"
             d="m 416.9,168.3 c -1.4,0 -2.5,-1.4 -2.5,-2.2 v -63.2 c 0,-0.8 1.1,-2.2 2.5,-2.2 1.4,0 2.5,1.4 2.5,2.2 v 63.2 c -0.1,0.8 -1.1,2.2 -2.5,2.2 z"
             id="path4284"
             style="fill:#55121c" />
          <path
             class="st3"
             d="m 450.7,134.5 c 0,1.4 -1.4,2.4 -2.2,2.4 h -63.2 c -0.8,0 -2.2,-1.1 -2.2,-2.4 0,-1.3 1.4,-2.4 2.2,-2.4 h 63.2 c 0.8,-0.1 2.2,1 2.2,2.4 z"
             id="path4286"
             style="fill:#55121c" />
        </g>
        <g
           class="st2"
           id="g4296"
           style="enable-background:new"
           transform="matrix(0.92494701,0,0,0.92494701,17.177375,12.93163)">
          <path
             class="st3"
             d="m 521.6,142.4 c 2.3,0 3.2,-0.6 3.2,-2.3 v -9.5 h -3.2 v -1.4 c 3.2,0 4,-0.4 4.8,-3.3 h 2 V 140 c 0,1.7 0.9,2.3 3.2,2.3 v 0.8 h -10 z"
             id="path4290"
             style="fill:#55121c" />
          <path
             class="st3"
             d="m 535.2,144.8 h -1.5 l 7.8,-20.4 h 1.5 z"
             id="path4292"
             style="fill:#55121c" />
          <path
             class="st3"
             d="m 557.7,140 v 0.1 c 0,1.7 0.4,2.3 1.3,2.3 v 0.8 h -6.2 v -0.8 c 0.9,0 1.3,-0.6 1.3,-2.3 V 140 H 545 v -2.4 c 3.2,-1.9 7.8,-6 9.1,-11.7 h 3.6 v 11.7 h 2.4 v 2.4 z m -3.6,-2.3 v -8.4 c -1.2,4 -4.4,6.9 -7.3,8.4 z"
             id="path4294"
             style="fill:#55121c" />
        </g>
        <g
           class="st2"
           id="g4304"
           style="enable-background:new"
           transform="matrix(0.92494701,0,0,0.92494701,19.274162,12.93163)">
          <path
             class="st3"
             d="m 277.4,142.4 c 2.3,0 3.2,-0.6 3.2,-2.3 v -9.5 h -3.2 v -1.4 c 3.2,0 4,-0.4 4.8,-3.3 h 2 V 140 c 0,1.7 0.9,2.3 3.2,2.3 v 0.8 h -10 z"
             id="path4298"
             style="fill:#55121c" />
          <path
             class="st3"
             d="m 291,144.8 h -1.5 l 7.8,-20.4 h 1.5 z"
             id="path4300"
             style="fill:#55121c" />
          <path
             class="st3"
             d="m 313.5,140 v 0.1 c 0,1.7 0.4,2.3 1.3,2.3 v 0.8 h -6.2 v -0.8 c 0.9,0 1.3,-0.6 1.3,-2.3 V 140 h -9.1 v -2.4 c 3.2,-1.9 7.8,-6 9.1,-11.7 h 3.6 v 11.7 h 2.4 v 2.4 z m -3.6,-2.3 v -8.4 c -1.2,4 -4.4,6.9 -7.3,8.4 z"
             id="path4302"
             style="fill:#55121c" />
        </g>
        <g
           id="g4310"
           transform="matrix(0.92494701,0,0,0.92494701,17.177375,12.93163)">
          <path
             class="st3"
             d="m 590.2,109.2 h -98.9 c -3,0 -5.5,-2.5 -5.5,-5.5 v -1.4 c 0,-3 2.5,-5.5 5.5,-5.5 h 98.9 c 3.1,0 5.6,2.5 5.6,5.6 v 1.1 c 0.1,3.2 -2.5,5.7 -5.6,5.7 z m -98.9,-8.6 c -1,0 -1.8,0.8 -1.8,1.8 v 1.4 c 0,1 0.8,1.8 1.8,1.8 h 98.9 c 1.1,0 1.9,-0.9 1.9,-1.9 v -1.1 c 0,-1.1 -0.9,-1.9 -1.9,-1.9 h -98.9 z"
             id="path4306"
             style="fill:#55121c" />
          <path
             class="st3"
             d="m 571.9,172.3 h -62.1 c -1.9,0 -3.6,-1.3 -4.1,-3.1 l -17.6,-62.8 c -0.3,-1 0.3,-2 1.3,-2.3 1,-0.3 2,0.3 2.3,1.3 l 17.6,62.8 c 0.1,0.2 0.3,0.4 0.5,0.4 h 62.1 c 0.2,0 0.5,-0.2 0.5,-0.4 L 590,105.4 c 0.3,-1 1.3,-1.6 2.3,-1.3 1,0.3 1.6,1.3 1.3,2.3 L 576,169.2 c -0.5,1.8 -2.2,3.1 -4.1,3.1 z"
             id="path4308"
             style="fill:#55121c" />
        </g>
        <g
           id="g4316"
           transform="matrix(0.92494701,0,0,0.92494701,19.274162,12.93163)">
          <path
             class="st3"
             d="m 346.1,109.2 h -98.9 c -3,0 -5.5,-2.5 -5.5,-5.5 v -1.4 c 0,-3 2.5,-5.5 5.5,-5.5 h 98.9 c 3.1,0 5.6,2.5 5.6,5.6 v 1.1 c 0,3.2 -2.5,5.7 -5.6,5.7 z m -99,-8.6 c -1,0 -1.8,0.8 -1.8,1.8 v 1.4 c 0,1 0.8,1.8 1.8,1.8 H 346 c 1.1,0 1.9,-0.9 1.9,-1.9 v -1.1 c 0,-1.1 -0.9,-1.9 -1.9,-1.9 h -98.9 z"
             id="path4312"
             style="fill:#55121c" />
          <path
             class="st3"
             d="m 327.7,172.3 h -62.1 c -1.9,0 -3.6,-1.3 -4.1,-3.1 L 244,106.4 c -0.3,-1 0.3,-2 1.3,-2.3 1,-0.3 2,0.3 2.3,1.3 l 17.6,62.8 c 0.1,0.2 0.3,0.4 0.5,0.4 h 62.1 c 0.2,0 0.5,-0.2 0.5,-0.4 l 17.6,-62.8 c 0.3,-1 1.3,-1.6 2.3,-1.3 1,0.3 1.6,1.3 1.3,2.3 l -17.6,62.8 c -0.6,1.8 -2.3,3.1 -4.2,3.1 z"
             id="path4314"
             style="fill:#55121c" />
        </g>
      </g>
    </g>
  </g>
</svg>
