<?xml version="1.0" encoding="UTF-8" standalone="no"?>
<!-- Created with Inkscape (http://www.inkscape.org/) -->

<svg
   width="59.928001mm"
   height="23.309999mm"
   viewBox="0 0 59.928002 23.309999"
   version="1.1"
   id="svg3748"
   sodipodi:docname="1ymedio.svg"
   inkscape:version="1.2.2 (732a01da63, 2022-12-09)"
   xmlns:inkscape="http://www.inkscape.org/namespaces/inkscape"
   xmlns:sodipodi="http://sodipodi.sourceforge.net/DTD/sodipodi-0.dtd"
   xmlns="http://www.w3.org/2000/svg"
   xmlns:svg="http://www.w3.org/2000/svg">
  <sodipodi:namedview
     id="namedview3750"
     pagecolor="#ffffff"
     bordercolor="#000000"
     borderopacity="0.25"
     inkscape:showpageshadow="2"
     inkscape:pageopacity="0.0"
     inkscape:pagecheckerboard="0"
     inkscape:deskcolor="#d1d1d1"
     inkscape:document-units="mm"
     showgrid="false"
     inkscape:zoom="2.5959553"
     inkscape:cx="177.96916"
     inkscape:cy="66.449525"
     inkscape:window-width="1920"
     inkscape:window-height="1001"
     inkscape:window-x="-9"
     inkscape:window-y="-9"
     inkscape:window-maximized="1"
     inkscape:current-layer="layer1" />
  <defs
     id="defs3745" />
  <g
     inkscape:label="Capa 1"
     inkscape:groupmode="layer"
     id="layer1"
     transform="translate(166.73365,-61.88394)">
    <g
       id="g24"
       transform="matrix(0.13899444,0,0,0.13899444,-193.15651,54.676057)"
       inkscape:export-filename="..\..\..\..\..\..\..\Users\Usuario\Desktop\Gelato2\assets\img\g24.svg"
       inkscape:export-xdpi="96"
       inkscape:export-ydpi="96"
       style="fill:#55121c;fill-opacity:1">
      <path
         class="st2"
         d="m 320.5,185.9 h -94.3 c -2.7,0 -5.1,-1.8 -5.8,-4.4 L 193.7,86.1 c -0.4,-1.3 0.4,-2.6 1.6,-2.9 1.3,-0.3 2.6,0.4 2.9,1.7 l 26.7,95.4 c 0.1,0.5 0.6,0.9 1.2,0.9 h 94.3 c 0.5,0 1,-0.4 1.2,-0.9 l 26.7,-95.4 c 0.4,-1.3 1.7,-2 2.9,-1.7 1.3,0.3 2,1.7 1.6,2.9 l -26.7,95.4 c -0.6,2.6 -3,4.4 -5.6,4.4 z"
         id="path20"
         style="fill:#55121c;fill-opacity:1" />
      <path
         class="st2"
         d="M 350.6,88.1 H 196 c -3.2,0 -5.9,-2.6 -5.9,-5.9 v -1.6 c 0,-3.2 2.6,-5.9 5.9,-5.9 h 154.5 c 3.2,0 5.9,2.6 5.9,5.9 v 1.6 c 0.1,3.2 -2.6,5.9 -5.8,5.9 z M 196,79.5 c -0.6,0 -1.1,0.5 -1.1,1.1 v 1.6 c 0,0.6 0.5,1.1 1.1,1.1 h 154.5 c 0.6,0 1.1,-0.5 1.1,-1.1 v -1.6 c 0,-0.6 -0.5,-1.1 -1.1,-1.1 z"
         id="path22"
         style="fill:#55121c;fill-opacity:1" />
    </g>
    <g
       id="g30"
       transform="matrix(0.13899444,0,0,0.13899444,-193.15651,54.676057)"
       style="fill:#55121c;fill-opacity:1">
      <path
         class="st2"
         d="M 616.4,104.4 H 490 c -3,0 -5.5,-2.5 -5.5,-5.5 v -1.4 c 0,-3 2.5,-5.5 5.5,-5.5 h 126.4 c 3.1,0 5.6,2.5 5.6,5.6 v 1.1 c 0,3.2 -2.5,5.7 -5.6,5.7 z M 490,95.8 c -1,0 -1.8,0.8 -1.8,1.8 V 99 c 0,1 0.8,1.8 1.8,1.8 h 126.4 c 1.1,0 1.9,-0.9 1.9,-1.9 v -1.1 c 0,-1.1 -0.9,-1.9 -1.9,-1.9 H 490 Z"
         id="path26"
         style="fill:#55121c;fill-opacity:1" />
      <path
         class="st2"
         d="m 592.6,185.8 h -78.7 c -2.2,0 -4.1,-1.5 -4.7,-3.6 L 487,102.7 c -0.3,-1 0.3,-2 1.3,-2.3 1,-0.3 2,0.3 2.3,1.3 l 22.3,79.5 c 0.1,0.5 0.6,0.9 1.1,0.9 h 78.7 c 0.5,0 1,-0.4 1.1,-0.9 l 22.3,-79.5 c 0.3,-1 1.3,-1.6 2.3,-1.3 1,0.3 1.6,1.3 1.3,2.3 l -22.3,79.5 c -0.7,2.1 -2.6,3.6 -4.8,3.6 z"
         id="path28"
         style="fill:#55121c;fill-opacity:1" />
    </g>
    <g
       id="g36"
       transform="matrix(0.13899444,0,0,0.13899444,-193.15651,54.676057)"
       style="fill:#55121c;fill-opacity:1">
      <path
         class="st2"
         d="m 416.9,168.3 c -1.4,0 -2.5,-1.4 -2.5,-2.2 v -63.2 c 0,-0.8 1.1,-2.2 2.5,-2.2 1.4,0 2.5,1.4 2.5,2.2 v 63.2 c -0.1,0.8 -1.1,2.2 -2.5,2.2 z"
         id="path32"
         style="fill:#55121c;fill-opacity:1" />
      <path
         class="st2"
         d="m 450.7,134.5 c 0,1.4 -1.4,2.4 -2.2,2.4 h -63.2 c -0.8,0 -2.2,-1.1 -2.2,-2.4 0,-1.3 1.4,-2.4 2.2,-2.4 h 63.2 c 0.8,-0.1 2.2,1 2.2,2.4 z"
         id="path34"
         style="fill:#55121c;fill-opacity:1" />
    </g>
    <g
       class="st3"
       id="g70"
       transform="matrix(0.13899444,0,0,0.13899444,-193.15651,54.676057)"
       style="fill:#55121c;fill-opacity:1;enable-background:new">
      <path
         class="st2"
         d="m 247.8,139.6 c 2.3,0 3.2,-0.6 3.2,-2.3 v -9.5 h -3.2 v -1.4 c 3.2,0 4,-0.4 4.8,-3.3 h 2 v 14.1 c 0,1.7 0.9,2.3 3.2,2.3 v 0.8 h -10 z"
         id="path64"
         style="fill:#55121c;fill-opacity:1" />
      <path
         class="st2"
         d="m 283.3,139.6 v 0.8 c -4.1,0 -6.1,-0.4 -7,-4.1 -0.9,-3.2 -0.9,-5.3 -4,-5.3 l -1.8,1.5 v 4.7 c 0,1.7 0.4,2.3 1.3,2.3 v 0.8 h -6.2 v -0.8 c 0.9,0 1.3,-0.6 1.3,-2.3 v -11 c 0,-1.7 -0.4,-2.3 -1.3,-2.3 v -0.8 h 6.2 v 0.8 c -0.9,0 -1.3,0.6 -1.3,2.3 v 4.5 l 6.4,-5.6 c 1.3,-1.1 1.4,-1.2 -1,-1.2 v -0.8 h 6.9 v 0.8 c -1,0 -2.5,0.1 -3.8,1.2 l -5.3,4.6 0.3,-0.3 v 0.3 c 3.6,-0.1 4.6,2.1 5.8,5.9 1,3.2 1.9,4 3.5,4 z"
         id="path66"
         style="fill:#55121c;fill-opacity:1" />
      <path
         class="st2"
         d="m 297.3,130 c 0.4,-1.1 0,-1.5 -0.5,-1.5 -0.4,0 -0.7,0.2 -0.9,0.4 0.6,0.8 0.9,1.7 0.9,2.8 0,2.8 -2.1,4.7 -6,4.7 -1,0 -1.8,-0.1 -2.5,-0.3 -0.5,0.4 -0.7,0.7 -0.7,1 0,0.7 0.8,0.8 3.6,0.6 3.7,-0.3 6.5,0.7 6.5,3.7 0,3.2 -3.2,4.5 -6.7,4.5 -3.6,0 -7.4,-1.2 -6.3,-5.3 l 3.6,0.5 c -1,2.8 0.6,3.4 2.7,3.4 2.1,0 3.1,-1 3.1,-2.6 0,-2 -1.4,-2.2 -3.8,-2.1 -3.4,0.1 -5,-0.1 -5,-1.8 0,-1 0.8,-1.9 1.9,-2.3 -1.5,-0.8 -2.3,-2.2 -2.3,-3.9 0,-2.8 2.1,-4.7 6,-4.7 1.8,0 3.2,0.4 4.2,1.2 0.5,-0.7 1.4,-1.2 2.4,-1.2 1.9,0 2.3,1.2 2,2.5 z m -4.1,1.3 c -0.5,-2.1 -1.6,-3.2 -3.2,-2.8 -1.4,0.3 -1.8,1.8 -1.4,3.6 0.5,2.1 1.6,3.2 3.2,2.8 1.4,-0.3 1.9,-1.8 1.4,-3.6 z"
         id="path68"
         style="fill:#55121c;fill-opacity:1" />
    </g>
    <g
       class="st3"
       id="g82"
       transform="matrix(0.13899444,0,0,0.13899444,-193.15651,54.676057)"
       style="fill:#55121c;fill-opacity:1;enable-background:new"
       inkscape:export-filename="8.png"
       inkscape:export-xdpi="96"
       inkscape:export-ydpi="96">
      <path
         class="st2"
         d="m 516,149.3 c 2.3,0 3.2,-0.6 3.2,-2.3 v -9.5 H 516 v -1.4 c 3.2,0 4,-0.4 4.8,-3.3 h 2 V 147 c 0,1.7 0.9,2.3 3.2,2.3 v 0.8 h -10 z"
         id="path72"
         style="fill:#55121c;fill-opacity:1" />
      <path
         class="st2"
         d="m 529.6,151.8 h -1.5 l 7.8,-20.4 h 1.5 z"
         id="path74"
         style="fill:#55121c;fill-opacity:1" />
      <path
         class="st2"
         d="m 552.4,145.1 0.8,0.1 -0.2,3.5 -0.1,1.5 h -13.6 c 0,-5.9 2.3,-6.5 6.1,-7.9 2.8,-1 4.1,-2 4.1,-4.7 0,-2.4 -0.9,-3.6 -2.9,-3.6 -1.4,0 -4,0.3 -3,4.4 l -3.6,0.5 c -1,-5.1 3.9,-6.3 6.8,-6.3 2.8,0 6.3,1.1 6.3,4.9 0,4.6 -4.5,5.2 -7,6.1 -3.2,1.1 -4.4,1.9 -4.4,4.2 h 8.1 c 1.8,0 2.5,-0.8 2.6,-2.7 z"
         id="path76"
         style="fill:#55121c;fill-opacity:1" />
      <path
         class="st2"
         d="m 578.8,149.3 v 0.8 c -4.1,0 -6.1,-0.4 -7,-4.1 -0.9,-3.2 -0.9,-5.3 -4,-5.3 l -1.8,1.5 v 4.7 c 0,1.7 0.4,2.3 1.3,2.3 V 150 H 561 v -0.8 c 0.9,0 1.3,-0.6 1.3,-2.3 v -11 c 0,-1.7 -0.4,-2.3 -1.3,-2.3 v -0.8 h 6.2 v 0.8 c -0.9,0 -1.3,0.6 -1.3,2.3 v 4.5 l 6.4,-5.6 c 1.3,-1.1 1.4,-1.2 -1,-1.2 v -0.8 h 6.9 v 0.8 c -1,0 -2.5,0.1 -3.8,1.2 l -5.3,4.6 0.3,-0.3 v 0.3 c 3.6,-0.1 4.6,2.1 5.8,5.9 1.1,3.3 2,4 3.6,4 z"
         id="path78"
         style="fill:#55121c;fill-opacity:1" />
      <path
         class="st2"
         d="m 592.8,139.8 c 0.4,-1.1 0,-1.5 -0.5,-1.5 -0.4,0 -0.7,0.2 -0.9,0.4 0.6,0.8 0.9,1.7 0.9,2.8 0,2.8 -2.1,4.7 -6,4.7 -1,0 -1.8,-0.1 -2.5,-0.3 -0.5,0.4 -0.7,0.7 -0.7,1 0,0.7 0.8,0.8 3.6,0.6 3.7,-0.3 6.5,0.7 6.5,3.7 0,3.2 -3.2,4.5 -6.7,4.5 -3.6,0 -7.4,-1.2 -6.3,-5.3 l 3.6,0.5 c -1,2.8 0.6,3.4 2.7,3.4 2.1,0 3.1,-1 3.1,-2.6 0,-2 -1.4,-2.2 -3.8,-2.1 -3.4,0.1 -5,-0.1 -5,-1.8 0,-1 0.8,-1.9 1.9,-2.3 -1.5,-0.8 -2.3,-2.2 -2.3,-3.9 0,-2.8 2.1,-4.7 6,-4.7 1.8,0 3.2,0.4 4.2,1.2 0.5,-0.7 1.4,-1.2 2.4,-1.2 1.9,0 2.3,1.2 2,2.5 z m -4.1,1.3 c -0.5,-2.1 -1.6,-3.2 -3.2,-2.8 -1.4,0.3 -1.8,1.8 -1.4,3.6 0.5,2.1 1.6,3.2 3.2,2.8 1.4,-0.3 1.9,-1.8 1.4,-3.6 z"
         id="path80"
         style="fill:#55121c;fill-opacity:1" />
    </g>
  </g>
</svg>
