<?xml version="1.0" encoding="UTF-8" standalone="no"?>
<!-- Created with Inkscape (http://www.inkscape.org/) -->

<svg
   width="59.928001mm"
   height="23.309999mm"
   viewBox="0 0 59.928002 23.309999"
   version="1.1"
   id="svg3748"
   sodipodi:docname="2.svg"
   inkscape:version="1.2.2 (732a01da63, 2022-12-09)"
   xmlns:inkscape="http://www.inkscape.org/namespaces/inkscape"
   xmlns:sodipodi="http://sodipodi.sourceforge.net/DTD/sodipodi-0.dtd"
   xmlns="http://www.w3.org/2000/svg"
   xmlns:svg="http://www.w3.org/2000/svg">
  <sodipodi:namedview
     id="namedview3750"
     pagecolor="#ffffff"
     bordercolor="#000000"
     borderopacity="0.25"
     inkscape:showpageshadow="2"
     inkscape:pageopacity="0.0"
     inkscape:pagecheckerboard="0"
     inkscape:deskcolor="#d1d1d1"
     inkscape:document-units="mm"
     showgrid="false"
     inkscape:zoom="3.1682723"
     inkscape:cx="134.77377"
     inkscape:cy="85.062134"
     inkscape:window-width="1920"
     inkscape:window-height="1001"
     inkscape:window-x="-9"
     inkscape:window-y="-9"
     inkscape:window-maximized="1"
     inkscape:current-layer="layer1" />
  <defs
     id="defs3745" />
  <g
     inkscape:label="Capa 1"
     inkscape:groupmode="layer"
     id="layer1"
     transform="translate(-38.742017,-79.424307)">
    <g
       id="g4030"
       transform="matrix(0.13453706,0,0,0.13453706,13.166519,73.078553)">
      <g
         id="g4012">
        <g
           id="g4004">
          <g
             id="g3996">
            <path
               class="st3"
               d="m 320.5,185.9 h -94.3 c -2.7,0 -5.1,-1.8 -5.8,-4.4 L 193.7,86.1 c -0.4,-1.3 0.4,-2.6 1.6,-2.9 1.3,-0.3 2.6,0.4 2.9,1.7 l 26.7,95.4 c 0.1,0.5 0.6,0.9 1.2,0.9 h 94.3 c 0.5,0 1,-0.4 1.2,-0.9 l 26.7,-95.4 c 0.4,-1.3 1.7,-2 2.9,-1.7 1.3,0.3 2,1.7 1.6,2.9 l -26.7,95.4 c -0.6,2.6 -3,4.4 -5.6,4.4 z"
               id="path3992"
               style="fill:#55121c" />
            <path
               class="st3"
               d="M 350.6,88.1 H 196 c -3.2,0 -5.9,-2.6 -5.9,-5.9 v -1.6 c 0,-3.2 2.6,-5.9 5.9,-5.9 h 154.5 c 3.2,0 5.9,2.6 5.9,5.9 v 1.6 c 0.1,3.2 -2.6,5.9 -5.8,5.9 z M 196,79.5 c -0.6,0 -1.1,0.5 -1.1,1.1 v 1.6 c 0,0.6 0.5,1.1 1.1,1.1 h 154.5 c 0.6,0 1.1,-0.5 1.1,-1.1 v -1.6 c 0,-0.6 -0.5,-1.1 -1.1,-1.1 z"
               id="path3994"
               style="fill:#55121c" />
          </g>
          <g
             id="g4002">
            <path
               class="st3"
               d="m 600.4,185.9 h -94.3 c -2.7,0 -5.1,-1.8 -5.8,-4.4 L 473.6,86.1 c -0.4,-1.3 0.4,-2.6 1.6,-2.9 1.3,-0.3 2.6,0.4 2.9,1.7 l 26.7,95.4 c 0.1,0.5 0.6,0.9 1.2,0.9 h 94.3 c 0.5,0 1,-0.4 1.2,-0.9 l 26.7,-95.4 c 0.4,-1.3 1.7,-2 2.9,-1.7 1.3,0.3 2,1.7 1.7,2.9 l -26.7,95.4 c -0.6,2.6 -3,4.4 -5.7,4.4 z"
               id="path3998"
               style="fill:#55121c" />
            <path
               class="st3"
               d="M 630.5,88.1 H 476 c -3.2,0 -5.9,-2.6 -5.9,-5.9 v -1.6 c 0,-3.2 2.6,-5.9 5.9,-5.9 h 154.5 c 3.2,0 5.9,2.6 5.9,5.9 v 1.6 c 0,3.2 -2.6,5.9 -5.9,5.9 z M 476,79.5 c -0.6,0 -1.1,0.5 -1.1,1.1 v 1.6 c 0,0.6 0.5,1.1 1.1,1.1 h 154.5 c 0.6,0 1.1,-0.5 1.1,-1.1 v -1.6 c 0,-0.6 -0.5,-1.1 -1.1,-1.1 z"
               id="path4000"
               style="fill:#55121c" />
          </g>
        </g>
        <g
           id="g4010">
          <path
             class="st3"
             d="m 416.9,168.3 c -1.4,0 -2.5,-1.4 -2.5,-2.2 v -63.2 c 0,-0.8 1.1,-2.2 2.5,-2.2 1.4,0 2.5,1.4 2.5,2.2 v 63.2 c -0.1,0.8 -1.1,2.2 -2.5,2.2 z"
             id="path4006"
             style="fill:#55121c" />
          <path
             class="st3"
             d="m 450.7,134.5 c 0,1.4 -1.4,2.4 -2.2,2.4 h -63.2 c -0.8,0 -2.2,-1.1 -2.2,-2.4 0,-1.3 1.4,-2.4 2.2,-2.4 h 63.2 c 0.8,-0.1 2.2,1 2.2,2.4 z"
             id="path4008"
             style="fill:#55121c" />
        </g>
      </g>
      <g
         class="st2"
         id="g4020"
         style="enable-background:new">
        <path
           class="st3"
           d="m 247.7,139.6 c 2.3,0 3.2,-0.6 3.2,-2.3 v -9.5 h -3.2 v -1.4 c 3.2,0 4,-0.4 4.8,-3.3 h 2 v 14.1 c 0,1.7 0.9,2.3 3.2,2.3 v 0.8 h -10 z"
           id="path4014"
           style="fill:#55121c" />
        <path
           class="st3"
           d="m 283.2,139.6 v 0.8 c -4.1,0 -6.1,-0.4 -7,-4.1 -0.9,-3.2 -0.9,-5.3 -4,-5.3 l -1.8,1.5 v 4.7 c 0,1.7 0.4,2.3 1.3,2.3 v 0.8 h -6.2 v -0.8 c 0.9,0 1.3,-0.6 1.3,-2.3 v -11 c 0,-1.7 -0.4,-2.3 -1.3,-2.3 v -0.8 h 6.2 v 0.8 c -0.9,0 -1.3,0.6 -1.3,2.3 v 4.5 l 6.4,-5.6 c 1.3,-1.1 1.4,-1.2 -1,-1.2 v -0.8 h 6.9 v 0.8 c -1,0 -2.5,0.1 -3.8,1.2 l -5.3,4.6 0.3,-0.3 v 0.3 c 3.6,-0.1 4.6,2.1 5.8,5.9 1,3.2 1.9,4 3.5,4 z"
           id="path4016"
           style="fill:#55121c" />
        <path
           class="st3"
           d="m 297.2,130 c 0.4,-1.1 0,-1.5 -0.5,-1.5 -0.4,0 -0.7,0.2 -0.9,0.4 0.6,0.8 0.9,1.7 0.9,2.8 0,2.8 -2.1,4.7 -6,4.7 -1,0 -1.8,-0.1 -2.5,-0.3 -0.5,0.4 -0.7,0.7 -0.7,1 0,0.7 0.8,0.8 3.6,0.6 3.7,-0.3 6.5,0.7 6.5,3.7 0,3.2 -3.2,4.5 -6.7,4.5 -3.6,0 -7.4,-1.2 -6.3,-5.3 l 3.6,0.5 c -1,2.8 0.6,3.4 2.7,3.4 2.1,0 3.1,-1 3.1,-2.6 0,-2 -1.4,-2.2 -3.8,-2.1 -3.4,0.1 -5,-0.1 -5,-1.8 0,-1 0.8,-1.9 1.9,-2.3 -1.5,-0.8 -2.3,-2.2 -2.3,-3.9 0,-2.8 2.1,-4.7 6,-4.7 1.8,0 3.2,0.4 4.2,1.2 0.5,-0.7 1.4,-1.2 2.4,-1.2 1.9,0 2.3,1.2 2,2.5 z m -4.1,1.3 c -0.5,-2.1 -1.6,-3.2 -3.2,-2.8 -1.4,0.3 -1.8,1.8 -1.4,3.6 0.5,2.1 1.6,3.2 3.2,2.8 1.5,-0.3 1.9,-1.8 1.4,-3.6 z"
           id="path4018"
           style="fill:#55121c" />
      </g>
      <g
         class="st2"
         id="g4028"
         style="enable-background:new">
        <path
           class="st3"
           d="m 527.7,139.6 c 2.3,0 3.2,-0.6 3.2,-2.3 v -9.5 h -3.2 v -1.4 c 3.2,0 4,-0.4 4.8,-3.3 h 2 v 14.1 c 0,1.7 0.9,2.3 3.2,2.3 v 0.8 h -10 z"
           id="path4022"
           style="fill:#55121c" />
        <path
           class="st3"
           d="m 563.1,139.6 v 0.8 c -4.1,0 -6.1,-0.4 -7,-4.1 -0.9,-3.2 -0.9,-5.3 -4,-5.3 l -1.8,1.5 v 4.7 c 0,1.7 0.4,2.3 1.3,2.3 v 0.8 h -6.2 v -0.8 c 0.9,0 1.3,-0.6 1.3,-2.3 v -11 c 0,-1.7 -0.4,-2.3 -1.3,-2.3 v -0.8 h 6.2 v 0.8 c -0.9,0 -1.3,0.6 -1.3,2.3 v 4.5 l 6.4,-5.6 c 1.3,-1.1 1.4,-1.2 -1,-1.2 v -0.8 h 6.9 v 0.8 c -1,0 -2.5,0.1 -3.8,1.2 l -5.3,4.6 0.3,-0.3 v 0.3 c 3.6,-0.1 4.6,2.1 5.8,5.9 1.1,3.2 2,4 3.5,4 z"
           id="path4024"
           style="fill:#55121c" />
        <path
           class="st3"
           d="m 577.2,130 c 0.4,-1.1 0,-1.5 -0.5,-1.5 -0.4,0 -0.7,0.2 -0.9,0.4 0.6,0.8 0.9,1.7 0.9,2.8 0,2.8 -2.1,4.7 -6,4.7 -1,0 -1.8,-0.1 -2.5,-0.3 -0.5,0.4 -0.7,0.7 -0.7,1 0,0.7 0.8,0.8 3.6,0.6 3.7,-0.3 6.5,0.7 6.5,3.7 0,3.2 -3.2,4.5 -6.7,4.5 -3.6,0 -7.4,-1.2 -6.3,-5.3 l 3.6,0.5 c -1,2.8 0.6,3.4 2.7,3.4 2.1,0 3.1,-1 3.1,-2.6 0,-2 -1.4,-2.2 -3.8,-2.1 -3.4,0.1 -5,-0.1 -5,-1.8 0,-1 0.8,-1.9 1.9,-2.3 -1.5,-0.8 -2.3,-2.2 -2.3,-3.9 0,-2.8 2.1,-4.7 6,-4.7 1.8,0 3.2,0.4 4.2,1.2 0.5,-0.7 1.4,-1.2 2.4,-1.2 1.9,0 2.3,1.2 2,2.5 z m -4.1,1.3 c -0.5,-2.1 -1.6,-3.2 -3.2,-2.8 -1.4,0.3 -1.8,1.8 -1.4,3.6 0.5,2.1 1.6,3.2 3.2,2.8 1.4,-0.3 1.8,-1.8 1.4,-3.6 z"
           id="path4026"
           style="fill:#55121c" />
      </g>
    </g>
  </g>
</svg>
