<?xml version="1.0" encoding="UTF-8" standalone="no"?>
<!-- Created with Inkscape (http://www.inkscape.org/) -->

<svg
   width="12.543mm"
   height="25.77mm"
   viewBox="0 0 12.543 25.77"
   version="1.1"
   id="svg6442"
   sodipodi:docname="2bochas.svg"
   inkscape:version="1.2.2 (732a01da63, 2022-12-09)"
   xmlns:inkscape="http://www.inkscape.org/namespaces/inkscape"
   xmlns:sodipodi="http://sodipodi.sourceforge.net/DTD/sodipodi-0.dtd"
   xmlns="http://www.w3.org/2000/svg"
   xmlns:svg="http://www.w3.org/2000/svg">
  <sodipodi:namedview
     id="namedview6444"
     pagecolor="#ffffff"
     bordercolor="#000000"
     borderopacity="0.25"
     inkscape:showpageshadow="2"
     inkscape:pageopacity="0.0"
     inkscape:pagecheckerboard="0"
     inkscape:deskcolor="#d1d1d1"
     inkscape:document-units="mm"
     showgrid="false"
     inkscape:zoom="7.8495654"
     inkscape:cx="47.64595"
     inkscape:cy="43.760385"
     inkscape:window-width="1920"
     inkscape:window-height="1001"
     inkscape:window-x="-9"
     inkscape:window-y="-9"
     inkscape:window-maximized="1"
     inkscape:current-layer="g311" />
  <defs
     id="defs6439">
    <inkscape:path-effect
       effect="powerstroke"
       id="path-effect7454"
       is_visible="true"
       lpeversion="1"
       offset_points="0,4.9921382"
       not_jump="false"
       sort_points="true"
       interpolator_type="CubicBezierJohan"
       interpolator_beta="0.2"
       start_linecap_type="zerowidth"
       linejoin_type="extrp_arc"
       miter_limit="4"
       scale_width="1"
       end_linecap_type="zerowidth" />
    <inkscape:path-effect
       effect="powerstroke"
       id="path-effect7446"
       is_visible="true"
       lpeversion="1"
       offset_points="0,1.3208365"
       not_jump="false"
       sort_points="true"
       interpolator_type="CubicBezierJohan"
       interpolator_beta="0.2"
       start_linecap_type="zerowidth"
       linejoin_type="extrp_arc"
       miter_limit="4"
       scale_width="1"
       end_linecap_type="zerowidth" />
  </defs>
  <g
     inkscape:label="Capa 1"
     inkscape:groupmode="layer"
     id="layer1"
     transform="translate(-236.31809,-109.26351)">
    <g
       id="g311"
       transform="matrix(0.25008368,0,0,0.25008368,-213.31545,28.336433)">
      <g
         id="g297"
         transform="matrix(0.92250484,0,0,0.95917499,139.50506,14.823535)">
        <path
           class="st4"
           d="m 1829.9646,359.612 c -11.0557,0.99061 2.8586,-3.33751 3.1963,-14.43237 0.3278,-10.77216 -13.0751,-19.86843 -3.4425,-21.33585 10.9734,-1.67168 22.5894,8.43466 22.5894,19.53466 0,11.1 -8.1953,14.96588 -22.3432,16.23356 z m 1.2165,-32.22444 c -9.3,0 5.1386,8.24518 2.3587,17.01503 -3.3171,10.4632 -18.2714,16.19359 -1.1371,13.17207 9.0602,-1.59771 16.7976,-4.67466 16.7976,-13.87466 0,-9.2 -8.7189,-16.31244 -18.0189,-16.31244 z"
           id="path295"
           style="fill:#55141d"
           sodipodi:nodetypes="sssssssssss" />
      </g>
      <g
         id="g303"
         transform="matrix(0.88829567,0,0,0.88829567,201.9375,40.325761)">
        <path
           class="st4"
           d="m 1812.3,359.36822 c -11.1,0 -15.1928,-9.32361 -15.1928,-20.42361 0,-11.1 9.2516,-19.13788 20.3516,-19.13788 11.1,0 18.6828,10.31385 18.6828,21.41385 0,11.1 -12.6416,18.14764 -23.8416,18.14764 z m 5.1588,-36.26149 c -9.3,0 -17.7103,6.38615 -17.7103,15.58615 0,9.2 3.8391,19.12556 13.0391,19.12556 9.3,0 19.954,-7.49786 19.954,-16.69786 0,-9.2 -5.9828,-18.01385 -15.2828,-18.01385 z"
           id="path301"
           style="fill:#55141d"
           sodipodi:nodetypes="ssssssssss" />
      </g>
      <g
         id="g309"
         transform="matrix(0.98854545,0,0,0.98854545,21.921189,4.0867511)">
        <path
           class="st4"
           d="m 1822.6,427.3 c 0,0 0,0 0,0 -1.2,0 -2.2,-0.8 -2.6,-2 l -21,-66.4 c -0.2,-0.5 -0.1,-1.1 0.2,-1.5 0.3,-0.4 0.8,-0.7 1.3,-0.7 h 44.2 c 0.5,0 1,0.3 1.3,0.7 0.3,0.4 0.4,1 0.2,1.5 l -21.1,66.4 c -0.3,1.2 -1.3,2 -2.5,2 z m -19.8,-67.3 19.7,62.5 19.9,-62.5 z"
           id="path307"
           style="fill:#55141d" />
      </g>
    </g>
  </g>
</svg>
