<?xml version="1.0" encoding="UTF-8" standalone="no"?>
<!-- Created with Inkscape (http://www.inkscape.org/) -->

<svg
   width="59.928001mm"
   height="23.309793mm"
   viewBox="0 0 59.928001 23.309793"
   version="1.1"
   id="svg3748"
   sodipodi:docname="2cono.svg"
   inkscape:version="1.2.2 (732a01da63, 2022-12-09)"
   xmlns:inkscape="http://www.inkscape.org/namespaces/inkscape"
   xmlns:sodipodi="http://sodipodi.sourceforge.net/DTD/sodipodi-0.dtd"
   xmlns="http://www.w3.org/2000/svg"
   xmlns:svg="http://www.w3.org/2000/svg">
  <sodipodi:namedview
     id="namedview3750"
     pagecolor="#ffffff"
     bordercolor="#000000"
     borderopacity="0.25"
     inkscape:showpageshadow="2"
     inkscape:pageopacity="0.0"
     inkscape:pagecheckerboard="0"
     inkscape:deskcolor="#d1d1d1"
     inkscape:document-units="mm"
     showgrid="false"
     inkscape:zoom="3.1213998"
     inkscape:cx="156.98085"
     inkscape:cy="57.506251"
     inkscape:window-width="1920"
     inkscape:window-height="1001"
     inkscape:window-x="-9"
     inkscape:window-y="-9"
     inkscape:window-maximized="1"
     inkscape:current-layer="layer1" />
  <defs
     id="defs3745" />
  <g
     inkscape:label="Capa 1"
     inkscape:groupmode="layer"
     id="layer1"
     transform="translate(167.73534,-8.4689805)">
    <g
       id="g4734"
       transform="matrix(0.26362242,0,0,0.26362242,-247.10071,-12.573697)">
      <path
         class="st3"
         d="m 415,151.9 c -1.1,0 -2,-1.2 -2,-1.8 V 98 c 0,-0.7 0.9,-1.8 2,-1.8 1.1,0 2,1.2 2,1.8 v 52.2 c 0,0.6 -0.9,1.7 -2,1.7 z"
         id="path4730"
         style="fill:#55121c" />
      <path
         class="st3"
         d="m 442.9,124 c 0,1.1 -1.2,2 -1.8,2 H 389 c -0.6,0 -1.8,-0.9 -1.8,-2 0,-1.1 1.2,-2 1.8,-2 h 52.1 c 0.6,0 1.8,0.9 1.8,2 z"
         id="path4732"
         style="fill:#55121c" />
    </g>
    <g
       id="g4792"
       transform="matrix(0.26362242,0,0,0.26362242,-247.10071,-12.573697)">
      <path
         class="st3"
         d="m 328.3,107.8 c -0.1,0.1 -0.1,0.1 -0.2,0.2 h 0.3 c 0,-0.1 -0.1,-0.2 -0.1,-0.2 z m 0,0 c -0.1,0.1 -0.1,0.1 -0.2,0.2 h 0.3 c 0,-0.1 -0.1,-0.2 -0.1,-0.2 z m 0,0 c -0.1,0.1 -0.1,0.1 -0.2,0.2 h 0.3 c 0,-0.1 -0.1,-0.2 -0.1,-0.2 z m 0,0 c -0.1,0.1 -0.1,0.1 -0.2,0.2 h 0.3 c 0,-0.1 -0.1,-0.2 -0.1,-0.2 z"
         id="path4784"
         style="fill:#55121c" />
      <g
         id="g4790">
        <path
           class="st3"
           d="m 328.3,107.8 c -0.1,0.1 -0.1,0.1 -0.2,0.2 h 0.3 c 0,-0.1 -0.1,-0.2 -0.1,-0.2 z"
           id="path4786"
           style="fill:#55121c" />
        <path
           class="st3"
           d="m 337.6,80 c -3.4,0 -6.6,1 -9.3,2.7 C 325.6,81 322.4,80 319,80 c -9.5,0 -17.3,7.7 -17.3,17.3 0,6.1 3.2,11.5 8,14.5 l 17.2,54.4 c 0.4,1.1 1.3,1.9 2.4,1.9 v 0 c 1.1,0 2.1,-0.7 2.4,-1.8 l 17.9,-56.2 c 0,-0.1 0.1,-0.3 0.1,-0.4 3.2,-3.1 5.2,-7.5 5.2,-12.4 C 354.8,87.8 347.1,80 337.6,80 Z M 310,108.1 c -3.1,-2.6 -5.1,-6.5 -5.1,-10.8 0,-7.7 6.3,-14 14,-14 2.4,0 4.6,0.6 6.6,1.6 1,0.5 1.9,1.2 2.7,1.9 2.9,2.6 4.7,6.3 4.7,10.5 0,4.2 -1.8,7.9 -4.7,10.5 0.1,0.1 0.1,0.1 0.2,0.2 h -17.8 c -0.1,-0.1 -0.4,0 -0.6,0.1 z m 35.3,4.6 -16,50.4 -15.6,-49.4 -0.8,-2.5 h 14.5 8.2 4 6.2 z m 1.4,-4.8 h -14.1 c 2.3,-2.9 3.7,-6.6 3.7,-10.7 0,-4.9 -2,-9.2 -5.3,-12.4 2,-1 4.2,-1.6 6.6,-1.6 7.7,0 14,6.3 14,14 0,4.4 -1.9,8.2 -4.9,10.7 z"
           id="path4788"
           style="fill:#55121c" />
      </g>
    </g>
    <g
       id="g4802"
       transform="matrix(0.26362242,0,0,0.26362242,-247.10071,-12.573697)">
      <path
         class="st3"
         d="m 501.7,107.8 c -0.1,0.1 -0.1,0.1 -0.2,0.2 h 0.3 c 0,-0.1 0,-0.2 -0.1,-0.2 z m 0,0 c -0.1,0.1 -0.1,0.1 -0.2,0.2 h 0.3 c 0,-0.1 0,-0.2 -0.1,-0.2 z m 0,0 c -0.1,0.1 -0.1,0.1 -0.2,0.2 h 0.3 c 0,-0.1 0,-0.2 -0.1,-0.2 z m 0,0 c -0.1,0.1 -0.1,0.1 -0.2,0.2 h 0.3 c 0,-0.1 0,-0.2 -0.1,-0.2 z"
         id="path4794"
         style="fill:#55121c" />
      <g
         id="g4800">
        <path
           class="st3"
           d="m 501.7,107.8 c -0.1,0.1 -0.1,0.1 -0.2,0.2 h 0.3 c 0,-0.1 0,-0.2 -0.1,-0.2 z"
           id="path4796"
           style="fill:#55121c" />
        <path
           class="st3"
           d="m 511,80 c -3.4,0 -6.6,1 -9.3,2.7 C 499,81 495.8,80 492.4,80 c -9.5,0 -17.3,7.7 -17.3,17.3 0,6.1 3.2,11.5 8,14.5 l 17.2,54.4 c 0.4,1.1 1.3,1.9 2.4,1.9 v 0 c 1.1,0 2.1,-0.7 2.4,-1.8 l 17.8,-56.2 c 0,-0.1 0.1,-0.3 0.1,-0.4 3.2,-3.1 5.2,-7.5 5.2,-12.4 C 528.3,87.8 520.5,80 511,80 Z m -27.5,28.1 c -3.1,-2.6 -5.1,-6.5 -5.1,-10.8 0,-7.7 6.3,-14 14,-14 2.4,0 4.6,0.6 6.6,1.6 1,0.5 1.9,1.2 2.7,1.9 2.9,2.6 4.7,6.3 4.7,10.5 0,4.2 -1.8,7.9 -4.7,10.5 0.1,0.1 0.1,0.1 0.2,0.2 h -17.8 c -0.2,-0.1 -0.4,0 -0.6,0.1 z m 35.2,4.6 -16,50.4 -15.6,-49.4 -0.8,-2.5 h 14.5 8.2 4 6.2 z m 1.4,-4.8 H 506 c 2.3,-2.9 3.7,-6.6 3.7,-10.7 0,-4.9 -2,-9.2 -5.3,-12.4 2,-1 4.2,-1.6 6.6,-1.6 7.7,0 14,6.3 14,14 0,4.4 -1.9,8.2 -4.9,10.7 z"
           id="path4798"
           style="fill:#55121c" />
      </g>
    </g>
  </g>
</svg>
