<?xml version="1.0" encoding="UTF-8" standalone="no"?>
<!-- Created with Inkscape (http://www.inkscape.org/) -->

<svg
   width="59.928001mm"
   height="23.309999mm"
   viewBox="0 0 59.928001 23.309999"
   version="1.1"
   id="svg3748"
   sodipodi:docname="2copo.svg"
   inkscape:version="1.2.2 (732a01da63, 2022-12-09)"
   xmlns:inkscape="http://www.inkscape.org/namespaces/inkscape"
   xmlns:sodipodi="http://sodipodi.sourceforge.net/DTD/sodipodi-0.dtd"
   xmlns="http://www.w3.org/2000/svg"
   xmlns:svg="http://www.w3.org/2000/svg">
  <sodipodi:namedview
     id="namedview3750"
     pagecolor="#ffffff"
     bordercolor="#000000"
     borderopacity="0.25"
     inkscape:showpageshadow="2"
     inkscape:pageopacity="0.0"
     inkscape:pagecheckerboard="0"
     inkscape:deskcolor="#d1d1d1"
     inkscape:document-units="mm"
     showgrid="false"
     inkscape:zoom="3.4136251"
     inkscape:cx="88.469"
     inkscape:cy="27.390237"
     inkscape:window-width="1920"
     inkscape:window-height="1001"
     inkscape:window-x="-9"
     inkscape:window-y="-9"
     inkscape:window-maximized="1"
     inkscape:current-layer="layer1" />
  <defs
     id="defs3745" />
  <g
     inkscape:label="Capa 1"
     inkscape:groupmode="layer"
     id="layer1"
     transform="translate(-85.604219,-146.31787)">
    <g
       id="g5058"
       transform="matrix(0.25672442,0,0,0.25672442,9.3046071,126.27151)">
      <path
         class="st3"
         d="m 415,151.9 c -1.1,0 -2,-1.2 -2,-1.8 V 98 c 0,-0.7 0.9,-1.8 2,-1.8 1.1,0 2,1.2 2,1.8 v 52.2 c 0,0.6 -0.9,1.7 -2,1.7 z"
         id="path5054"
         style="fill:#55121c" />
      <path
         class="st3"
         d="m 442.9,124 c 0,1.1 -1.2,2 -1.8,2 H 389 c -0.6,0 -1.8,-0.9 -1.8,-2 0,-1.1 1.2,-2 1.8,-2 h 52.1 c 0.6,0 1.8,0.9 1.8,2 z"
         id="path5056"
         style="fill:#55121c" />
    </g>
    <g
       id="g5102"
       transform="matrix(0.25672442,0,0,0.25672442,9.3046071,126.27151)">
      <path
         class="st3"
         d="m 328.3,164.3 c -2.2,0 -3.9,-1.8 -3.9,-3.9 v -7.8 c 0,-0.8 0.6,-1.4 1.4,-1.4 0.8,0 1.4,0.6 1.4,1.4 v 7.8 c 0,0.6 0.5,1.1 1.1,1.1 0.6,0 1.1,-0.5 1.1,-1.1 v -7.8 c 0,-0.8 0.6,-1.4 1.4,-1.4 0.8,0 1.4,0.6 1.4,1.4 v 7.8 c 0,2.2 -1.7,3.9 -3.9,3.9 z"
         id="path5088"
         style="fill:#55121c" />
      <g
         id="g5098">
        <path
           class="st3"
           d="m 341.1,115.1 c -0.4,0 -0.8,-0.2 -1.1,-0.5 -0.5,-0.6 -0.4,-1.5 0.2,-2 1.2,-0.9 2,-3 2,-4.9 0,-2.1 -1.1,-4.1 -2.7,-4.9 -0.6,-0.3 -0.9,-1.1 -0.7,-1.8 0.4,-0.9 1.1,-3.3 0.5,-5.3 -0.4,-1.2 -1.1,-2 -2.3,-2.5 -0.4,-0.2 -0.8,-0.6 -0.8,-1.1 -0.4,-2.4 -1.9,-3.9 -3.6,-5.7 L 332.2,86 c -2.2,-2.3 -6.5,-4.2 -8.9,-4.8 0.6,1.3 1,2.7 0.7,4.1 -0.3,1.2 -1.2,2.2 -2.7,3 -1.6,0.9 -1,3.2 -1,3.2 0.2,0.7 -0.2,1.4 -0.8,1.7 -1.2,0.5 -2,1.3 -2.3,2.5 -0.6,2 0.2,4.3 0.5,5.3 0.2,0.7 0,1.4 -0.7,1.8 -1.6,0.8 -2.6,2.8 -2.7,4.9 0,1.8 0.7,3.8 1.8,4.8 0.6,0.5 0.6,1.4 0.1,2 -0.5,0.6 -1.4,0.6 -2,0.1 -1.7,-1.5 -2.9,-4.4 -2.8,-7 0.1,-2.7 1.3,-5.2 3.2,-6.7 -0.5,-1.6 -0.9,-3.9 -0.2,-6 0.5,-1.6 1.5,-2.9 2.9,-3.8 -0.1,-1.7 0.4,-4.1 2.6,-5.3 0.7,-0.4 1.2,-0.8 1.3,-1.2 0.2,-0.8 -0.4,-2 -1.1,-3.2 -0.7,-1.2 -0.2,-2.2 0.4,-2.6 2.3,-1.7 10.6,2.2 13.7,5.3 l 0.4,0.4 c 1.7,1.8 3.5,3.6 4.2,6.4 1.6,0.9 2.7,2.2 3.2,3.9 0.7,2.2 0.3,4.4 -0.2,6 1.9,1.5 3.1,3.9 3.2,6.7 0.1,2.8 -1.2,5.7 -3.1,7.2 -0.2,0.3 -0.5,0.4 -0.8,0.4 z"
           id="path5090"
           style="fill:#55121c" />
        <path
           class="st3"
           d="m 316.4,102.9 c -0.4,0 -0.7,-0.1 -1,-0.4 -0.5,-0.5 -0.6,-1.4 -0.1,-1.9 0.4,-0.4 2.6,-2.5 10.8,-3 0.8,0 1.5,0.6 1.5,1.3 0,0.7 -0.5,1.4 -1.3,1.5 -7,0.4 -8.8,2.1 -8.9,2.1 -0.3,0.2 -0.6,0.4 -1,0.4 z"
           id="path5092"
           style="fill:#55121c" />
        <path
           class="st3"
           d="m 318.9,93.3 c -0.6,0 -1.1,-0.4 -1.3,-0.9 -0.3,-0.7 0.1,-1.6 0.9,-1.8 0.5,-0.2 5,-1.8 7.9,-1.4 0.8,0.1 1.3,0.8 1.2,1.6 -0.1,0.8 -0.8,1.3 -1.6,1.2 -1.9,-0.2 -5.4,0.8 -6.6,1.3 -0.2,0 -0.3,0 -0.5,0 z"
           id="path5094"
           style="fill:#55121c" />
        <path
           class="st3"
           d="m 327.9,154 c -7.1,0 -13,-5.8 -13.1,-12.9 l -0.5,-27.4 c 0,-0.4 0.1,-0.8 0.4,-1 0.3,-0.2 0.6,-0.4 1,-0.4 h 25.5 c 0.4,0 0.8,0.2 1,0.4 0.2,0.2 0.4,0.7 0.4,1.1 l -1.3,27.7 c -0.3,7 -6.1,12.5 -13.1,12.5 z m -10.8,-38.8 0.5,25.9 c 0.1,5.6 4.7,10.1 10.3,10.1 h 0.3 c 5.5,0 10,-4.3 10.3,-9.8 l 1.3,-26.2 c -0.1,0 -22.7,0 -22.7,0 z"
           id="path5096"
           style="fill:#55121c" />
      </g>
      <path
         class="st3"
         d="m 341.4,169.8 c -0.8,0 -1.4,-0.6 -1.4,-1.4 0,-1.4 -2,-2.3 -3.2,-2.8 -2.2,-0.8 -5.3,-1.3 -8.5,-1.3 -6.5,0 -11.7,1.8 -11.7,4 0,0.8 -0.6,1.4 -1.4,1.4 -0.8,0 -1.4,-0.6 -1.4,-1.4 0,-5.1 7.8,-6.9 14.5,-6.9 6.7,0 14.5,1.8 14.5,6.9 0,0.8 -0.6,1.5 -1.4,1.5 z"
         id="path5100"
         style="fill:#55121c" />
    </g>
    <g
       id="g5118"
       transform="matrix(0.25672442,0,0,0.25672442,9.3046071,126.27151)">
      <path
         class="st3"
         d="m 501.7,164.3 c -2.2,0 -3.9,-1.8 -3.9,-3.9 v -7.8 c 0,-0.8 0.6,-1.4 1.4,-1.4 0.8,0 1.4,0.6 1.4,1.4 v 7.8 c 0,0.6 0.5,1.1 1.1,1.1 0.6,0 1.1,-0.5 1.1,-1.1 v -7.8 c 0,-0.8 0.6,-1.4 1.4,-1.4 0.8,0 1.4,0.6 1.4,1.4 v 7.8 c 0.1,2.2 -1.7,3.9 -3.9,3.9 z"
         id="path5104"
         style="fill:#55121c" />
      <g
         id="g5114">
        <path
           class="st3"
           d="m 514.6,115.1 c -0.4,0 -0.8,-0.2 -1.1,-0.5 -0.5,-0.6 -0.4,-1.5 0.2,-2 1.2,-0.9 2,-3 2,-4.9 0,-2.1 -1.1,-4.1 -2.7,-4.9 -0.6,-0.3 -0.9,-1.1 -0.7,-1.8 0.3,-0.9 1.1,-3.3 0.5,-5.3 -0.4,-1.2 -1.1,-2 -2.3,-2.5 -0.4,-0.2 -0.8,-0.6 -0.8,-1.1 -0.4,-2.4 -1.9,-3.9 -3.6,-5.7 L 505.7,86 c -2.2,-2.3 -6.5,-4.2 -8.9,-4.8 0.6,1.3 1,2.7 0.7,4.1 -0.3,1.2 -1.2,2.2 -2.7,3 -1.6,0.9 -1,3.2 -1,3.2 0.2,0.7 -0.2,1.4 -0.8,1.7 -1.2,0.5 -2,1.3 -2.3,2.5 -0.6,2 0.2,4.3 0.5,5.3 0.2,0.7 0,1.4 -0.7,1.8 -1.6,0.8 -2.6,2.8 -2.7,4.9 0,1.8 0.7,3.8 1.8,4.8 0.6,0.5 0.6,1.4 0.1,2 -0.5,0.6 -1.4,0.6 -2,0.1 -1.7,-1.5 -2.9,-4.4 -2.8,-7 0.1,-2.7 1.3,-5.2 3.2,-6.7 -0.5,-1.6 -0.9,-3.9 -0.2,-6 0.5,-1.6 1.5,-2.9 2.9,-3.8 -0.1,-1.7 0.4,-4.1 2.6,-5.3 0.7,-0.4 1.2,-0.8 1.3,-1.2 0.2,-0.8 -0.4,-2 -1.1,-3.2 -0.7,-1.2 -0.2,-2.2 0.4,-2.6 2.3,-1.7 10.6,2.2 13.7,5.3 l 0.4,0.4 c 1.7,1.8 3.5,3.6 4.2,6.4 1.6,0.9 2.7,2.2 3.2,3.9 0.7,2.2 0.3,4.4 -0.2,6 1.9,1.5 3.1,3.9 3.2,6.7 0.1,2.8 -1.2,5.7 -3.1,7.2 -0.2,0.3 -0.5,0.4 -0.8,0.4 z"
           id="path5106"
           style="fill:#55121c" />
        <path
           class="st3"
           d="m 489.8,102.9 c -0.4,0 -0.7,-0.1 -1,-0.4 -0.5,-0.5 -0.6,-1.4 -0.1,-1.9 0.4,-0.4 2.6,-2.5 10.8,-3 0.8,0 1.5,0.6 1.5,1.3 0,0.7 -0.5,1.4 -1.3,1.5 -7,0.4 -8.8,2.1 -8.9,2.1 -0.3,0.2 -0.6,0.4 -1,0.4 z"
           id="path5108"
           style="fill:#55121c" />
        <path
           class="st3"
           d="m 492.4,93.3 c -0.6,0 -1.1,-0.4 -1.3,-0.9 -0.3,-0.7 0.1,-1.6 0.9,-1.8 0.5,-0.2 5,-1.8 7.9,-1.4 0.8,0.1 1.3,0.8 1.2,1.6 -0.1,0.8 -0.8,1.3 -1.6,1.2 -1.9,-0.2 -5.4,0.8 -6.6,1.3 -0.2,0 -0.4,0 -0.5,0 z"
           id="path5110"
           style="fill:#55121c" />
        <path
           class="st3"
           d="m 501.3,154 c -7.1,0 -13,-5.8 -13.1,-12.9 l -0.5,-27.4 c 0,-0.4 0.1,-0.8 0.4,-1 0.3,-0.2 0.6,-0.4 1,-0.4 h 25.5 c 0.4,0 0.8,0.2 1,0.4 0.2,0.2 0.4,0.7 0.4,1.1 l -1.3,27.7 c -0.3,7 -6.1,12.5 -13.1,12.5 z m -10.7,-38.8 0.5,25.9 c 0.1,5.6 4.7,10.1 10.3,10.1 h 0.3 c 5.5,0 10,-4.3 10.3,-9.8 l 1.3,-26.2 c -0.1,0 -22.7,0 -22.7,0 z"
           id="path5112"
           style="fill:#55121c" />
      </g>
      <path
         class="st3"
         d="m 514.8,169.8 c -0.8,0 -1.4,-0.6 -1.4,-1.4 0,-1.4 -2,-2.3 -3.2,-2.8 -2.2,-0.8 -5.3,-1.3 -8.5,-1.3 -6.5,0 -11.7,1.8 -11.7,4 0,0.8 -0.6,1.4 -1.4,1.4 -0.8,0 -1.4,-0.6 -1.4,-1.4 0,-5.1 7.8,-6.9 14.5,-6.9 6.7,0 14.5,1.8 14.5,6.9 0.1,0.8 -0.6,1.5 -1.4,1.5 z"
         id="path5116"
         style="fill:#55121c" />
    </g>
  </g>
</svg>
