<?xml version="1.0" encoding="UTF-8" standalone="no"?>
<!-- Created with Inkscape (http://www.inkscape.org/) -->

<svg
   width="25.269753mm"
   height="14.455956mm"
   viewBox="0 0 25.269753 14.455956"
   version="1.1"
   id="svg29459"
   sodipodi:docname="404.svg"
   inkscape:version="1.2.2 (732a01da63, 2022-12-09)"
   xmlns:inkscape="http://www.inkscape.org/namespaces/inkscape"
   xmlns:sodipodi="http://sodipodi.sourceforge.net/DTD/sodipodi-0.dtd"
   xmlns="http://www.w3.org/2000/svg"
   xmlns:svg="http://www.w3.org/2000/svg">
  <sodipodi:namedview
     id="namedview29461"
     pagecolor="#ffffff"
     bordercolor="#000000"
     borderopacity="0.25"
     inkscape:showpageshadow="2"
     inkscape:pageopacity="0.0"
     inkscape:pagecheckerboard="0"
     inkscape:deskcolor="#d1d1d1"
     inkscape:document-units="mm"
     showgrid="false"
     inkscape:zoom="7.4025425"
     inkscape:cx="3.1070406"
     inkscape:cy="30.259874"
     inkscape:window-width="1554"
     inkscape:window-height="1030"
     inkscape:window-x="-507"
     inkscape:window-y="5"
     inkscape:window-maximized="0"
     inkscape:current-layer="layer1" />
  <defs
     id="defs29456">
    <filter
       inkscape:collect="always"
       style="color-interpolation-filters:sRGB"
       id="filter13557-3"
       x="-0.032757458"
       y="-0.11495801"
       width="1.0655149"
       height="1.229916">
      <feGaussianBlur
         inkscape:collect="always"
         stdDeviation="0.32369827"
         id="feGaussianBlur13559-3" />
    </filter>
  </defs>
  <g
     inkscape:label="Capa 1"
     inkscape:groupmode="layer"
     id="layer1"
     transform="translate(-87.338099,-96.758504)">
    <g
       id="g22120"
       inkscape:export-filename="404.png"
       inkscape:export-xdpi="96"
       inkscape:export-ydpi="96"
       transform="translate(-938.56923,49.849663)">
      <path
         style="mix-blend-mode:normal;fill:#228684;fill-opacity:1;stroke:none;stroke-width:0.470001;stroke-linejoin:round;stroke-opacity:1;paint-order:fill markers stroke;filter:url(#filter13557-3)"
         d="m 1026.6842,56.665636 0.6386,0.250838 2.5996,0.114022 2.4189,0.07893 0.3421,1.05578 -1.2246,0.769192 -3.1436,2.22718 4.8053,0.141197 2.0232,-0.399957 c 0,0 -0.2991,-0.181298 1.9771,-0.612639 1.3576,-0.257267 1.3485,-0.679753 1.3485,-0.679753 l 0.6447,1.012595 0.9393,-0.04867 1.2087,-0.250843 0.9281,-0.43635 1.2777,-0.758678 h 1.2086 l 1.4138,0.114019 0.7298,-0.250843 0.8437,-0.547299 0.4105,-0.729729 0.1824,-0.798142 0.2281,-0.478885 0.5245,-0.798142 1.391,-0.615708 -0.1824,-0.478886 -18.602,0.91346 z"
         id="path8472-2"
         sodipodi:nodetypes="cccccccccscccccccccccccccccc" />
      <path
         style="fill:#22ff84;fill-opacity:1;stroke:none;stroke-width:0.470001;stroke-linejoin:round;stroke-opacity:1;paint-order:fill markers stroke"
         d="m 1035.3679,53.576612 c 0.3677,0.125974 5.3496,-6.4265 5.3496,-6.4265 2.7709,4.574528 5.2425,3.169351 5.3261,6.667229 0,0 0.054,0.930555 -0.591,1.96255 -0.5519,0.882474 -1.2577,2.151406 -1.2577,2.151406 0,0 -0.4128,-0.03304 -1.2318,0.134372 -2.5107,0.513216 -2.8273,-0.353461 -7.9012,-0.0031 -0.4504,0.03111 -0.8707,-2.629326 -2.0343,-2.431699 -1.9488,0.330973 -6.43,0.813436 -6.43,0.813436 l 0.4511,-0.769898 c 0,0 3.6609,-0.283716 4.3389,-0.408862 2.4999,-0.461465 2.3969,-2.231437 3.9803,-1.688968 z"
         id="path5598-3"
         sodipodi:nodetypes="sccscsssccsss" />
      <path
         style="fill:#22ff84;fill-opacity:1;stroke:none;stroke-width:0.470001;stroke-linejoin:round;stroke-opacity:1;paint-order:fill markers stroke"
         d="m 1045.9853,52.740349 0.516,0.241874 1.931,0.644998 0.6167,0.09675 0.2741,0.03225 0.3064,-0.112874 h 0.4999 c 0,0 0.2879,-0.02834 0.2741,0.0645 -0.01,0.05798 -0.076,0.370875 -0.076,0.370875 l -0.7296,0.612746 -1.6125,0.515995 -0.7095,2.015612 -2.5639,0.467622 -0.4192,-0.145124 0.7901,-1.741488 z"
         id="path8470-6"
         sodipodi:nodetypes="cccccccscccccccc" />
      <path
         d="m 1039.2392,58.41827 c -0.3638,-0.207968 -1.0902,-0.382344 -1.6142,-0.387498 -0.524,-0.0052 -1.3301,0.122201 -1.7915,0.283017 -0.6417,0.223713 -0.9335,0.213757 -1.2421,-0.04239 -0.2219,-0.184128 -0.3356,-0.511519 -0.2527,-0.72753 0.083,-0.216011 -0.047,-0.611327 -0.2888,-0.878477 -0.2418,-0.26715 -0.8146,-0.556078 -1.2729,-0.642057 -0.4583,-0.08598 -1.64,0.03075 -2.626,0.259408 -0.9859,0.228656 -2.1949,0.415738 -2.6866,0.415738 -0.4917,0 -0.9567,-0.101524 -1.0334,-0.225605 -0.077,-0.124082 0.01,-0.408607 0.1828,-0.632275 0.2363,-0.29817 1.0282,-0.443082 2.9681,-0.543145 1.8577,-0.09582 2.2518,-0.07201 1.3229,0.07993 -0.7276,0.11902 -1.7992,0.228655 -2.3812,0.243633 -0.5821,0.01498 -1.2335,0.137996 -1.4476,0.273376 -0.2141,0.135379 -0.3113,0.324075 -0.216,0.419319 0.095,0.09525 0.9328,-0.01733 1.8613,-0.250195 0.9285,-0.232854 2.1936,-0.423373 2.8113,-0.423373 0.6178,0 1.0618,-0.09944 0.9866,-0.220983 -0.075,-0.121541 0.1461,-0.01415 0.6492,-0.254055 0.7344,-0.350242 0.9631,-0.478093 0.9631,-0.188875 0,0.19811 0.1686,0.362356 0.4141,0.562078 0.3944,0.320778 0.767,0.309486 0.601,-0.132596 -0.1625,-0.432846 -0.6862,-0.739909 -0.3042,-0.463264 l 0.726,0.525654 -0.4523,0.253138 c -0.341,0.190841 -0.3632,0.261172 -0.6831,-0.158798 -0.3021,-0.396633 -0.7299,-0.632128 -1.007,-0.458921 -0.2141,0.133796 -0.3331,0.279504 -0.2646,0.323798 0.068,0.04429 0.4818,0.280369 0.9184,0.524616 0.5626,0.314748 0.8176,0.677119 0.8757,1.244206 l 0.082,0.800118 0.6505,-0.247311 c 0.3578,-0.13602 1.6306,-0.225769 2.8285,-0.199438 1.2229,0.02688 1.8879,0.121166 1.5165,0.215027 l -0.6615,0.167154 0.8806,0.202707 c 0.4843,0.111491 1.3177,0.128982 1.8521,0.03887 l 0.9715,-0.163835 -0.5136,0.402852 c -0.2825,0.22157 -0.9969,0.398634 -1.5875,0.393477 -0.5907,-0.0052 -1.3716,-0.17953 -1.7354,-0.387498 z m 4.3219,-0.698418 c 2e-4,-0.252989 0.4283,-0.375409 1.4409,-0.412067 0.9271,-0.03356 1.6186,-0.213236 1.9399,-0.504029 0.2747,-0.248531 0.4994,-0.707265 0.4994,-1.01941 0,-0.312143 0.1428,-0.71041 0.3175,-0.885035 0.1746,-0.174625 0.6423,-0.3175 1.0394,-0.3175 0.3971,0 0.9219,-0.199941 1.1662,-0.44431 l 0.4444,-0.444309 -0.096,0.499935 c -0.06,0.311118 -0.4042,0.562909 -0.9116,0.666671 -0.4484,0.0917 -0.9402,0.243954 -1.0929,0.338328 -0.1527,0.09437 -0.3558,0.588178 -0.4513,1.097339 -0.096,0.509162 -0.3827,1.037638 -0.6382,1.174393 -0.2556,0.136753 -1.1831,0.329928 -2.0612,0.429276 -1.2586,0.142388 -1.5965,0.104428 -1.5962,-0.179282 z m -2.5194,-0.408363 c 0.1909,-0.07643 0.4192,-0.06703 0.5071,0.02088 0.088,0.08792 -0.068,0.150452 -0.3473,0.138964 -0.3082,-0.0127 -0.3709,-0.07539 -0.1598,-0.159851 z m 1.6371,-0.09852 c 0.2182,-0.149135 0.9512,-0.560393 1.6289,-0.913908 0.7901,-0.412232 1.3283,-0.906606 1.5004,-1.378441 0.2128,-0.583091 0.2728,-0.624416 0.2894,-0.199244 0.011,0.295045 -0.1679,0.830827 -0.3985,1.190626 -0.3416,0.532887 -0.2872,0.51041 0.293,-0.121222 0.5899,-0.642142 0.6891,-0.94908 0.5768,-1.785938 -0.075,-0.555792 -0.091,-1.010531 -0.038,-1.010531 0.054,0 0.6489,0.187079 1.3224,0.415729 0.6735,0.228653 1.392,0.351451 1.5967,0.272889 0.2048,-0.07857 0.3723,-0.0145 0.3723,0.142382 0,0.172821 -0.3389,0.232556 -0.8599,0.151575 -0.4729,-0.07351 -1.1108,-0.215051 -1.4176,-0.314542 -0.4962,-0.160967 -0.5745,-0.05473 -0.7112,0.964602 -0.1126,0.839286 -0.3792,1.347032 -0.9974,1.899437 -0.6523,0.582859 -1.0139,0.719915 -1.5936,0.603978 -0.4124,-0.08248 -0.821,-0.0348 -0.908,0.105949 -0.087,0.140756 -0.3595,0.254096 -0.6055,0.251868 -0.3874,-0.0035 -0.3942,-0.04041 -0.051,-0.275209 z m 1.7639,-0.426297 c -0.097,-0.09701 -0.2558,-0.09701 -0.3528,0 -0.097,0.09701 -0.018,0.17639 0.1764,0.17639 0.194,0 0.2734,-0.07937 0.1764,-0.17639 z m 0.6173,-0.220485 c 0,-0.07276 -0.059,-0.132292 -0.1323,-0.132292 -0.073,0 -0.1323,0.05953 -0.1323,0.132292 0,0.07276 0.059,0.132292 0.1323,0.132292 0.073,0 0.1323,-0.05953 0.1323,-0.132292 z m -5.1594,0.396875 c 0.09,-0.145521 0.5435,-0.252714 1.0078,-0.23821 l 0.8443,0.02637 -0.6614,0.211836 c -0.3638,0.116509 -0.8174,0.223705 -1.0078,0.23821 -0.1905,0.0145 -0.2728,-0.09269 -0.1829,-0.23821 z m -0.7563,-0.742855 c 0.07,-0.385239 0.1704,-0.743752 0.2233,-0.796697 0.053,-0.05295 0.3434,-0.01783 0.6454,0.07802 0.302,0.09585 0.5491,0.333203 0.5491,0.527441 0,0.194241 -0.3476,0.474327 -0.7724,0.622417 l -0.7724,0.269256 z m 3.799,-0.308279 c -0.3072,-0.198758 -0.3306,-0.362961 -0.1034,-0.727272 0.1614,-0.258805 0.5186,-0.470554 0.7937,-0.470554 0.3566,0 0.5004,0.189027 0.5004,0.657835 0,0.377494 -0.1692,0.687427 -0.3969,0.727273 -0.2183,0.03819 -0.5755,-0.04608 -0.7938,-0.187282 z m -8.5321,-1.783388 0.38,-0.650015 -0.7526,0.470493 -0.7525,0.470493 0.6614,-0.646478 c 0.3638,-0.355566 0.7008,-0.558387 0.7488,-0.450715 0.048,0.10767 0.5088,-0.125746 1.024,-0.518702 0.5152,-0.39296 1.239,-1.195428 1.6084,-1.783266 0.3694,-0.587838 0.8909,-1.224378 1.1588,-1.414528 0.2679,-0.190154 0.4871,-0.628531 0.4871,-0.974173 0,-0.391678 0.2895,-0.834585 0.7684,-1.175623 0.4227,-0.30095 0.9627,-0.547182 1.2001,-0.547182 0,0 0.6306,0.464421 0.9243,1.149533 0.3906,0.911164 0.759,1.281501 1.7765,1.785937 0.8891,0.440749 1.4655,0.961782 1.8748,1.694739 0.325,0.582083 0.5892,1.415521 0.5872,1.852083 0,0.686493 -0.083,0.597112 -0.591,-0.661458 l -0.5872,-1.455209 -1.5875,-0.79375 c -1.1994,-0.599723 -1.6522,-0.987777 -1.8521,-1.5875 -0.1455,-0.436562 -0.3664,-0.951531 -0.4909,-1.144378 -0.1782,-0.27609 -0.361,-0.224102 -0.8599,0.244559 -0.3484,0.327351 -0.6335,0.820553 -0.6335,1.096 0,0.275447 -0.4192,0.939302 -0.9316,1.475232 -0.5123,0.535932 -1.2416,1.301843 -1.6207,1.702025 -0.5583,0.589346 -0.604,0.727604 -0.2407,0.727604 0.3138,0 0.4231,0.178813 0.364,0.595313 -0.062,0.436065 -0.2615,0.595312 -0.746,0.595312 -0.4901,0 -0.6911,-0.136839 -0.6177,-0.505526 0.036,-0.180773 -0.8595,-0.145951 -1.0921,0.538706 l 0.025,0.592736 z m 3.6815,0.276831 c -0.097,-0.097 -0.1764,-0.394657 -0.1764,-0.661447 0,-0.341019 0.1964,-0.485069 0.6614,-0.485069 0.5292,0 0.6615,0.132292 0.6615,0.661458 0,0.465027 -0.1441,0.661459 -0.4851,0.661459 -0.2668,0 -0.5644,-0.07937 -0.6614,-0.17639 z m 2.7445,-0.472358 c -0.1753,-0.211291 -0.278,-0.598244 -0.2281,-0.859895 0.05,-0.261652 0.3372,-0.511138 0.6385,-0.554411 0.3013,-0.04327 0.8359,0.165007 1.1879,0.462846 l 0.6401,0.541523 -0.5136,0.39705 c -0.2824,0.218389 -0.7143,0.397062 -0.9597,0.397062 -0.2455,0 -0.5897,-0.172873 -0.7651,-0.384164 z m 2.1061,-2.261658 c 0,-0.388057 0.1764,-0.529167 0.6615,-0.529167 0.4851,0 0.6615,0.14111 0.6615,0.529167 0,0.388056 -0.1764,0.529167 -0.6615,0.529167 -0.4851,0 -0.6615,-0.141111 -0.6615,-0.529167 z"
         style="fill:#000000;stroke:none;stroke-width:0.264583;stroke-opacity:1"
         id="path4887-4-5"
         sodipodi:nodetypes="sssssssssscssssssssssssscsssssscssscsscsssscssssssccsssssccsssssssssssssssssssssssssssssssssssscssssssssscsssssssccccssssssscssscscssssssssssssccssssssssssscsssssssss"
         clip-path="none" />
    </g>
  </g>
</svg>
