<?xml version="1.0" encoding="UTF-8" standalone="no"?>
<!-- Created with Inkscape (http://www.inkscape.org/) -->

<svg
   width="5.4299998mm"
   height="7.4888124mm"
   viewBox="0 0 5.4300008 7.4888122"
   version="1.1"
   id="svg6442"
   sodipodi:docname="barquillo_listStyle.svg"
   inkscape:version="1.2.2 (732a01da63, 2022-12-09)"
   xmlns:inkscape="http://www.inkscape.org/namespaces/inkscape"
   xmlns:sodipodi="http://sodipodi.sourceforge.net/DTD/sodipodi-0.dtd"
   xmlns="http://www.w3.org/2000/svg"
   xmlns:svg="http://www.w3.org/2000/svg">
  <sodipodi:namedview
     id="namedview6444"
     pagecolor="#ffffff"
     bordercolor="#000000"
     borderopacity="0.25"
     inkscape:showpageshadow="2"
     inkscape:pageopacity="0.0"
     inkscape:pagecheckerboard="0"
     inkscape:deskcolor="#d1d1d1"
     inkscape:document-units="mm"
     showgrid="false"
     inkscape:zoom="12.268549"
     inkscape:cx="16.42411"
     inkscape:cy="18.502596"
     inkscape:window-width="989"
     inkscape:window-height="1030"
     inkscape:window-x="235"
     inkscape:window-y="0"
     inkscape:window-maximized="0"
     inkscape:current-layer="g283" />
  <defs
     id="defs6439">
    <inkscape:path-effect
       effect="powerstroke"
       id="path-effect7454"
       is_visible="true"
       lpeversion="1"
       offset_points="0,4.9921382"
       not_jump="false"
       sort_points="true"
       interpolator_type="CubicBezierJohan"
       interpolator_beta="0.2"
       start_linecap_type="zerowidth"
       linejoin_type="extrp_arc"
       miter_limit="4"
       scale_width="1"
       end_linecap_type="zerowidth" />
    <inkscape:path-effect
       effect="powerstroke"
       id="path-effect7446"
       is_visible="true"
       lpeversion="1"
       offset_points="0,4.9921382"
       not_jump="false"
       sort_points="true"
       interpolator_type="CubicBezierJohan"
       interpolator_beta="0.2"
       start_linecap_type="zerowidth"
       linejoin_type="extrp_arc"
       miter_limit="4"
       scale_width="1"
       end_linecap_type="zerowidth" />
  </defs>
  <g
     inkscape:label="Capa 1"
     inkscape:groupmode="layer"
     id="layer1"
     transform="translate(-310.48829,-68.599005)">
    <g
       id="g283"
       transform="matrix(0.26458333,0,0,0.26458333,-236.50256,-3.3135066)">
      <g
         id="g397"
         transform="matrix(0.19828618,0.14781041,-0.14781041,0.19828618,1831.1167,-101.69825)">
        <g
           id="g359">
          <path
             class="st5"
             d="M 1757,670.3"
             id="path357"
             style="fill:#f6f1e9;stroke:#55141d;stroke-width:1.4378;stroke-linecap:round;stroke-linejoin:round;stroke-miterlimit:10" />
        </g>
        <g
           id="g363">
          <path
             class="st5"
             d="M 1718.3,670.3"
             id="path361"
             style="fill:#f6f1e9;stroke:#55141d;stroke-width:1.4378;stroke-linecap:round;stroke-linejoin:round;stroke-miterlimit:10" />
        </g>
        <g
           id="g367">
          <path
             class="st5"
             d="M 1724.9,660"
             id="path365"
             style="fill:#f6f1e9;stroke:#55141d;stroke-width:1.4378;stroke-linecap:round;stroke-linejoin:round;stroke-miterlimit:10" />
        </g>
        <g
           id="g373">
          <path
             class="st4"
             d="m 1760.2,661.5 c -0.5,0 -1,-0.2 -1.3,-0.6 -0.6,-0.7 -0.4,-1.8 0.3,-2.3 2.3,-1.9 3.9,-5.7 3.8,-9.4 -0.1,-4.1 -2.2,-7.8 -5.2,-9.4 -0.7,-0.4 -1.1,-1.3 -0.8,-2.1 0.8,-2.2 2,-6.3 0.9,-9.9 -0.7,-2.3 -2.2,-3.9 -4.6,-5 -0.5,-0.2 -0.9,-0.7 -1,-1.3 -0.8,-4.5 -3.6,-7.4 -6.6,-10.5 l -0.7,-0.7 c -4.8,-4.9 -14.3,-8.6 -17.9,-9 1.5,2.7 2.7,5.5 1.9,8.1 -0.5,1.9 -1.9,3.4 -4.3,4.7 -3.4,1.8 -2.3,6.5 -2.2,6.7 0.2,0.8 -0.2,1.6 -1,1.9 -2.4,1 -3.9,2.6 -4.6,5 -1.1,3.6 0.1,7.7 0.9,9.9 0.3,0.8 0,1.7 -0.8,2.1 -3.1,1.7 -5.1,5.4 -5.2,9.4 -0.1,3.5 1.4,7.3 3.5,9.2 0.7,0.6 0.8,1.7 0.1,2.4 -0.6,0.7 -1.7,0.7 -2.3,0.1 -2.9,-2.6 -4.8,-7.3 -4.7,-11.8 0.1,-4.8 2.3,-9.1 5.8,-11.5 -0.9,-2.7 -1.7,-6.9 -0.5,-10.7 0.9,-2.9 2.6,-5 5.3,-6.5 -0.3,-2.8 0.3,-7 4.1,-9.1 1.5,-0.8 2.4,-1.7 2.7,-2.7 0.5,-1.7 -0.8,-4.2 -2.1,-6.4 -1,-1.7 -0.4,-2.9 0.4,-3.6 3.4,-2.6 17.7,3.8 23.2,9.4 l 0.7,0.7 c 3.1,3.1 6.2,6.3 7.4,11.4 2.8,1.4 4.7,3.7 5.7,6.7 1.2,3.9 0.3,8 -0.5,10.7 3.5,2.4 5.7,6.7 5.8,11.5 0.1,4.7 -1.9,9.6 -5.1,12.1 -0.4,0.4 -0.8,0.5 -1.1,0.5 z"
             id="path371"
             style="fill:#55141d" />
        </g>
        <g
           id="g377">
          <path
             class="st5"
             d="M 1714.2,659.7"
             id="path375"
             style="fill:#f6f1e9;stroke:#55141d;stroke-width:1.4378;stroke-linecap:round;stroke-linejoin:round;stroke-miterlimit:10" />
        </g>
        <g
           id="g383">
          <path
             class="st3"
             d="m 1716.3,638.3 c 0,0 3.2,-3.6 17.4,-4.4"
             id="path379"
             style="fill:#f6f1e9" />
          <path
             class="st4"
             d="m 1716.3,639.9 c -0.4,0 -0.8,-0.1 -1.1,-0.4 -0.7,-0.6 -0.7,-1.6 -0.1,-2.3 0.4,-0.4 4.1,-4.1 18.5,-5 0.9,-0.1 1.7,0.6 1.8,1.6 0.1,0.9 -0.6,1.7 -1.6,1.8 -12.9,0.7 -16.2,3.9 -16.2,3.9 -0.5,0.3 -0.9,0.4 -1.3,0.4 z"
             id="path381"
             style="fill:#55141d" />
        </g>
        <g
           id="g389">
          <path
             class="st3"
             d="m 1720.8,621.3 c 0,0 8.2,-2.9 12.8,-2.4"
             id="path385"
             style="fill:#f6f1e9" />
          <path
             class="st4"
             d="m 1720.8,623 c -0.7,0 -1.3,-0.4 -1.6,-1.1 -0.3,-0.9 0.1,-1.8 1,-2.1 0.3,-0.1 8.6,-3 13.5,-2.5 0.9,0.1 1.6,0.9 1.5,1.8 -0.1,0.9 -0.9,1.6 -1.8,1.5 -3.5,-0.4 -9.9,1.5 -12,2.3 -0.2,0 -0.4,0.1 -0.6,0.1 z"
             id="path387"
             style="fill:#55141d" />
        </g>
        <g
           id="g395">
          <path
             class="st4"
             d="m 1737.6,730.6 c 0,0 0,0 0,0 -1.2,0 -2.3,-0.8 -2.6,-2 l -21.5,-68 c -0.2,-0.5 -0.1,-1.1 0.2,-1.5 0.3,-0.4 0.8,-0.7 1.3,-0.7 h 45.2 c 0.5,0 1,0.3 1.3,0.7 0.3,0.4 0.4,1 0.2,1.5 l -21.6,68 c -0.2,1.2 -1.3,2 -2.5,2 z m -20.3,-68.9 20.3,64.2 20.4,-64.2 z"
             id="path393"
             style="fill:#55141d" />
        </g>
      </g>
    </g>
  </g>
</svg>
