<?xml version="1.0" encoding="UTF-8" standalone="no"?>
<!-- Created with Inkscape (http://www.inkscape.org/) -->

<svg
   width="210mm"
   height="297mm"
   viewBox="0 0 210 297"
   version="1.1"
   id="svg5"
   inkscape:version="1.2.2 (732a01da63, 2022-12-09)"
   sodipodi:docname="dibujo.svg"
   xmlns:inkscape="http://www.inkscape.org/namespaces/inkscape"
   xmlns:sodipodi="http://sodipodi.sourceforge.net/DTD/sodipodi-0.dtd"
   xmlns="http://www.w3.org/2000/svg"
   xmlns:svg="http://www.w3.org/2000/svg">
  <sodipodi:namedview
     id="namedview7"
     pagecolor="#ffffff"
     bordercolor="#000000"
     borderopacity="0.25"
     inkscape:showpageshadow="2"
     inkscape:pageopacity="0.0"
     inkscape:pagecheckerboard="0"
     inkscape:deskcolor="#d1d1d1"
     inkscape:document-units="mm"
     showgrid="false"
     inkscape:zoom="0.72515432"
     inkscape:cx="121.35348"
     inkscape:cy="743.97957"
     inkscape:window-width="1920"
     inkscape:window-height="1001"
     inkscape:window-x="-9"
     inkscape:window-y="-9"
     inkscape:window-maximized="1"
     inkscape:current-layer="layer1" />
  <defs
     id="defs2" />
  <g
     inkscape:label="Capa 1"
     inkscape:groupmode="layer"
     id="layer1">
    <text
       xml:space="preserve"
       style="font-size:3.175px;fill:#000000;stroke-width:0.264583"
       x="60.202702"
       y="44.148643"
       id="text113"><tspan
         sodipodi:role="line"
         id="tspan111"
         style="stroke-width:0.264583"></tspan></text>
    <path
       style="fill:#000000;stroke-width:0.264583"
       d="M 73.702703,67.499999 49.621622,99.972973"
       id="path171" />
    <path
       style="fill:#000000;stroke-width:0.264583"
       d="m 98.878378,66.040539 c 0,0 -12.040542,44.513511 -10.581081,46.337841"
       id="path173" />
    <path
       style="fill:#000000;stroke-width:0.264583"
       d="M 126.60811,67.499999 121.13513,124.41892 143.75675,135"
       id="path175" />
    <path
       style="fill:#000000;stroke-width:0.264583"
       d="m 47.432433,34.662162 -20.797297,29.918919 4.378377,2.189189 4.013513,13.864865 9.486487,2.918918"
       id="path177" />
    <path
       style="fill:#000000;stroke-width:0.264583"
       d="m 89.756757,120.4054 c -7.662164,31.01352 5.472972,50.35136 8.39189,54.72973"
       id="path179" />
    <path
       style="fill:#000000;stroke-width:0.264583"
       d="m 90.851351,17.513513 c -2.91892,2.918919 -5.699744,5.9828 -8.756758,8.756757 -11.951211,10.84462 -10.382295,5.794086 -17.148649,19.702703 -0.428953,0.88174 -0.494456,1.946976 -0.364863,2.918918 0.596691,4.475199 5.958814,6.052237 9.486485,7.297298 8.203131,2.895221 17.325861,2.554054 25.905407,2.554054"
       id="path244" />
    <path
       style="fill:#000000;stroke-width:0.264583"
       id="path295"
       d="m 140.94763,32.150089 c -2.40114,4.641594 -4.79316,9.509874 -6.22041,14.549099 -1.25331,4.425111 -1.45113,6.785303 -2.10367,11.273978 -0.52453,5.332034 -1.05246,11.129639 1.28998,16.154997 0.21991,0.471792 0.52252,0.900428 0.78377,1.35064 1.65573,2.02003 4.16335,3.754279 6.77298,4.09993 0.79748,0.10563 1.10357,0.03855 1.90091,-0.02498 0,0 -3.1481,-2.259711 -3.1481,-2.259711 v 0 c -0.77177,0.02673 -1.06817,0.08049 -1.83105,-0.06488 -0.31046,-0.05916 -1.15458,-0.455533 -0.91462,-0.249867 0.72156,0.618416 1.59026,1.04191 2.40654,1.528516 0.29289,0.174607 -0.57755,-0.367495 -0.83466,-0.591473 -0.31775,-0.276791 -0.58864,-0.603171 -0.88296,-0.904753 -0.28593,-0.438529 -0.61472,-0.851916 -0.85777,-1.315583 -2.59571,-4.951976 -2.21677,-10.828845 -1.79706,-16.200188 0.62885,-4.634662 0.72626,-6.656674 2.08291,-11.209134 1.48947,-4.998167 3.92061,-9.801744 6.72641,-14.181495 0,0 -3.3732,-1.95509 -3.3732,-1.95509 z" />
    <path
       style="fill:#000000;stroke-width:0.264583"
       id="path297"
       d="m 76.882193,198.32359 c -1.395011,1.05084 -2.450013,2.45308 -3.614066,3.73652 -1.560433,1.78171 -3.36881,3.29104 -5.240454,4.7292 -1.929325,1.45063 -3.944593,2.80072 -5.788345,4.36305 -1.183981,1.00325 -1.306486,1.18888 -2.340252,2.27883 -1.495624,1.84584 -2.08897,3.71535 -1.540711,6.06466 0.09194,0.39396 0.244075,0.77139 0.366111,1.15709 1.046597,2.47738 2.96294,4.29122 4.971691,5.99843 1.304112,1.15601 2.732775,2.16473 4.252317,3.0172 4.431532,2.4861 2.880167,1.80982 5.356915,2.81683 1.90441,0.72427 3.921181,0.88925 5.935885,0.9937 2.650606,0.21289 5.269153,-0.10881 7.849071,-0.69786 2.369447,-0.60396 4.703188,-1.34321 6.942246,-2.3295 1.035642,-0.51868 1.995879,-1.16644 2.977263,-1.77717 0,0 -3.280378,-2.11099 -3.280378,-2.11099 v 0 c -0.952529,0.61539 -1.895742,1.25015 -2.919643,1.74454 -2.210974,0.96725 -4.499403,1.72973 -6.843903,2.30442 -2.578245,0.54032 -5.187087,0.81764 -7.823279,0.587 -1.997802,-0.13431 -3.993695,-0.34762 -5.86844,-1.10452 -1.956683,-0.83341 -0.744783,-0.37288 1.247074,0.94605 0.362413,0.23998 -0.76283,-0.41762 -1.133559,-0.64454 -0.581174,-0.35573 -1.599203,-1.04983 -2.1457,-1.47453 -0.346395,-0.26919 -0.673843,-0.56193 -1.010764,-0.84289 -2.002485,-1.6502 -3.901003,-3.40643 -5.028924,-5.79399 -0.131684,-0.3686 -0.29236,-0.7281 -0.395052,-1.1058 -0.605661,-2.22763 -0.07787,-3.99705 1.335894,-5.7744 0.342736,-0.36961 0.669314,-0.75489 1.028211,-1.10884 2.126194,-2.09683 4.67161,-3.70601 7.053833,-5.48441 1.959912,-1.43616 3.745461,-2.91067 5.351095,-4.7459 1.149448,-1.26175 2.188065,-2.6683 3.639368,-3.60778 0,0 -3.333504,-2.1344 -3.333504,-2.1344 z" />
    <path
       style="fill:#000000;stroke-width:0.264583"
       id="path301"
       d="m 161.12229,181.95585 c -4.10417,3.22423 -8.05958,6.63126 -12.10038,9.93382 -3.65584,3.20665 -7.58733,6.10956 -11.13434,9.44002 -1.1864,1.37774 -1.16238,2.08254 -0.3565,3.60585 1.85964,2.58769 3.60825,5.2506 5.34465,7.92218 1.06985,1.50358 1.89143,3.18819 3.09816,4.59487 0.54687,0.63749 0.71439,0.73819 1.32961,1.25367 1.68826,0.96222 3.04618,2.18074 4.89897,2.54432 1.694,0.33241 3.48994,0.26042 5.20551,0.27891 3.54199,0.004 7.08391,-0.02 10.62592,-0.0226 0.47404,0.001 0.94807,0.002 1.42211,0.003 0,0 -3.08571,-2.24014 -3.08571,-2.24014 v 0 c -0.46626,0.005 -0.93251,0.009 -1.39877,0.0138 -3.54225,0.0255 -7.08481,0.0534 -10.62705,0.0117 -1.39731,-0.0336 -2.81172,-0.0325 -4.19924,-0.22832 -0.3415,-0.0482 -0.68256,-0.10741 -1.01609,-0.19523 -0.27375,-0.0721 -1.03062,-0.44823 -0.80066,-0.28314 0.81784,0.58714 1.72276,1.04235 2.58414,1.56353 -0.62443,-0.46645 -0.84507,-0.59036 -1.3966,-1.18615 -1.27844,-1.38103 -2.11514,-3.09897 -3.21977,-4.60788 -1.71499,-2.61869 -3.36734,-5.28422 -5.19557,-7.82526 -0.78262,-1.35723 -1.02025,-1.84225 0.0618,-3.19171 3.37362,-3.44491 7.18423,-6.43827 10.81589,-9.59871 4.07699,-3.32213 8.1275,-6.70406 12.47754,-9.66749 0,0 -3.33359,-2.11933 -3.33359,-2.11933 z"
       inkscape:export-filename="path301.svg"
       inkscape:export-xdpi="96"
       inkscape:export-ydpi="96" />
    <path
       style="fill:#000000;stroke-width:0.264583"
       id="path305"
       d="m 156.41022,209.12984 c 3.97755,-0.12726 7.95606,-7.9e-4 11.93287,0.0874 3.18041,0.16255 6.39862,-0.0237 9.55361,0.48138 1.18343,0.37561 4.44796,2.06347 -2.01783,-1.26942 -0.094,-0.0484 0.15072,0.15023 0.20944,0.23813 0.13814,0.20679 0.14962,0.34286 0.20845,0.57978 -0.0599,1.39618 -0.62831,2.77064 -1.14028,4.0575 -1.16819,2.6444 -2.62335,5.14566 -3.96804,7.7013 -1.35429,2.64058 -2.76585,5.25033 -4.2136,7.84045 -0.38481,0.65052 -0.74567,1.31443 -1.12063,1.97056 0,0 3.39424,1.95269 3.39424,1.95269 v 0 c 0.36134,-0.66581 0.70383,-1.34125 1.0737,-2.00249 1.38328,-2.62799 2.76494,-5.25644 4.13427,-7.89186 1.34593,-2.56849 2.89683,-5.02949 4.06493,-7.68885 0.562,-1.34873 1.1444,-2.75199 1.33138,-4.20848 -0.31619,-2.41177 -2.96664,-3.05963 -5.06922,-3.60722 -3.11704,-0.36265 -6.26652,-0.17049 -9.39586,-0.31152 -4.05391,-0.10354 -8.10692,-0.20962 -12.16202,-0.24308 0,0 3.18459,2.31374 3.18459,2.31374 z" />
    <path
       style="fill:#000000;stroke-width:0.264583"
       d="m -79.175675,132.08108 c -7.675187,-1.32523 -24.114795,-2.61559 -29.554055,4.01351 -5.11665,6.23592 -7.12978,17.81107 -7.66216,25.17568 -0.78719,10.8895 -1.79415,12.93883 2.55405,19.7027 2.808,4.36799 5.79217,8.81306 10.21622,11.67568 1.1908,0.77051 2.46852,1.40243 3.648647,2.18919 0.647968,0.43197 1.118627,1.13013 1.824326,1.45945 1.150641,0.53697 2.43668,0.71586 3.648649,1.0946 4.363432,1.36357 7.739055,1.45946 12.405405,1.45946 3.128989,0 6.752513,0.44269 9.85135,0 1.985677,-0.28367 3.876527,-1.03918 5.837838,-1.45946 0.723374,-0.15501 1.487358,-0.13092 2.189189,-0.36487 0.11538,-0.0384 -0.06746,-0.26367 0,-0.36486 0.190815,-0.28622 0.538914,-0.44351 0.729729,-0.72973 0.168775,-0.25316 -0.137202,-0.82019 0,-1.09459 0.230762,-0.46153 0.808374,-0.66526 1.094597,-1.0946 1.742128,-2.61319 2.189189,-4.06225 2.189189,-7.2973 0,-2.1015 0.42431,-8.51897 0,-10.21621 -0.312962,-1.25184 -0.896284,-0.8857 -1.45946,-1.82433 -0.197877,-0.32979 -0.166989,-0.7648 -0.364866,-1.09459 -0.400846,-0.66808 -1.784895,-1.82433 -2.554054,-1.82433"
       id="path479" />
    <path
       style="fill:#000000;stroke-width:0.264583"
       d="m -90.12162,169.29729 35.391891,0.36487"
       id="path481" />
    <path
       style="fill:#000000;stroke-width:0.264583"
       d="m -53.270268,180.97297 c -0.412049,1.70465 -0.364866,3.39141 -0.364866,5.10811"
       id="path483" />
    <path
       style="fill:#000000;stroke-width:0.264583"
       d="m -59.837838,211.62162 c -0.382063,2.67445 -0.364863,1.69406 -0.364863,2.91892"
       id="path485" />
    <path
       style="fill:#000000;stroke-width:0.264583"
       d="m -138.64865,204.32432 c 2.06757,-2.91892 3.85469,-6.05829 6.20271,-8.75676 56.718458,-65.1839 -10.37698,14.10825 30.28378,-31.74324 1.90446,-2.14758 3.594379,-4.49365 5.108108,-6.93243 0.690795,-1.11295 0.910531,-2.45931 1.45946,-3.64865 0.216231,-0.4685 0.681797,-1.40419 1.094594,-1.09459 2.402666,1.802 3.127426,3.2019 4.743241,6.2027 1.753685,3.25684 3.695989,6.43253 5.10811,9.85135 0.912209,2.20851 1.167881,4.63488 1.824323,6.93243 2.385409,8.34893 1.345962,-1.1982 2.91892,16.41892 0.216321,2.42279 -0.151731,4.8696 0,7.2973 0.213638,3.41822 0.772919,6.80646 1.094595,10.21621 0.702894,7.45069 1.322223,14.86579 2.554054,22.25676 1.511308,9.06785 0.829982,1.86458 1.824323,11.31081 0.0382,0.36286 0,0.72973 0,1.0946 0.364866,1.09459 0.835152,2.15952 1.094595,3.28378 0.136739,0.59253 -0.192299,1.24742 0,1.82433 0.02885,0.0865 0.769152,2.02747 0.364866,2.18918 -2.766402,1.10656 -12.274251,0.36285 -12.405405,0.36487 -29.643424,0.45605 -1.179896,0.36486 -25.540544,0.36486 -19.33783,0 -38.67567,0 -58.01351,0"
       id="path487" />
    <path
       style="fill:#fdf502;fill-opacity:1;stroke-width:0.264583"
       id="path301-8"
       d="m 230.02824,183.29597 c -4.10417,3.22423 -8.05958,6.63126 -12.10038,9.93382 -3.65584,3.20665 -7.58733,6.10956 -11.13434,9.44002 -1.1864,1.37774 -1.16238,2.08254 -0.3565,3.60585 1.85964,2.58769 3.60825,5.2506 5.34465,7.92218 1.06985,1.50358 1.89143,3.18819 3.09816,4.59487 0.54687,0.63749 0.71439,0.73819 1.32961,1.25367 1.68826,0.96222 3.04618,2.18074 4.89897,2.54432 1.694,0.33241 3.48994,0.26042 5.20551,0.27891 3.54199,0.004 7.08391,-0.02 10.62592,-0.0226 0.47404,10e-4 0.94807,0.002 1.42211,0.003 0,0 -3.08571,-2.24014 -3.08571,-2.24014 v 0 c -0.46626,0.005 -0.93251,0.009 -1.39877,0.0138 -3.54225,0.0255 -7.08481,0.0534 -10.62705,0.0117 -1.39731,-0.0336 -2.81172,-0.0325 -4.19924,-0.22832 -0.3415,-0.0482 -0.68256,-0.10741 -1.01609,-0.19523 -0.27375,-0.0721 -1.03062,-0.44823 -0.80066,-0.28314 0.81784,0.58714 1.72276,1.04235 2.58414,1.56353 -0.62443,-0.46645 -0.84507,-0.59036 -1.3966,-1.18615 -1.27844,-1.38103 -2.11514,-3.09897 -3.21977,-4.60788 -1.71499,-2.61869 -3.36734,-5.28422 -5.19557,-7.82526 -0.78262,-1.35723 -1.02025,-1.84225 0.0618,-3.19171 3.37362,-3.44491 7.18423,-6.43827 10.81589,-9.59871 4.07699,-3.32213 8.1275,-6.70406 12.47754,-9.66749 0,0 -3.33359,-2.11933 -3.33359,-2.11933 z"
       inkscape:export-filename="path301.svg"
       inkscape:export-xdpi="96"
       inkscape:export-ydpi="96" />
    <path
       style="fill:#fdf502;fill-opacity:1;stroke-width:0.264583"
       id="path305-5"
       d="m 225.31618,210.46996 c 3.97755,-0.12726 7.95606,-7.9e-4 11.93287,0.0874 3.18041,0.16255 6.39862,-0.0237 9.55361,0.48138 1.18342,0.37561 4.44795,2.06347 -2.01784,-1.26942 -0.094,-0.0484 0.15073,0.15023 0.20945,0.23813 0.13813,0.20679 0.14961,0.34286 0.20844,0.57978 -0.0599,1.39618 -0.6283,2.77064 -1.14027,4.0575 -1.1682,2.6444 -2.62335,5.14566 -3.96804,7.7013 -1.35429,2.64058 -2.76585,5.25033 -4.2136,7.84045 -0.38481,0.65052 -0.74567,1.31443 -1.12063,1.97056 0,0 3.39424,1.95269 3.39424,1.95269 v 0 c 0.36134,-0.66581 0.70383,-1.34125 1.0737,-2.00249 1.38328,-2.62799 2.76494,-5.25644 4.13427,-7.89186 1.34593,-2.56849 2.89682,-5.02949 4.06493,-7.68885 0.562,-1.34873 1.14439,-2.75199 1.33138,-4.20848 -0.3162,-2.41177 -2.96665,-3.05963 -5.06922,-3.60722 -3.11705,-0.36265 -6.26652,-0.17049 -9.39586,-0.31152 -4.05392,-0.10354 -8.10693,-0.20962 -12.16203,-0.24308 0,0 3.18459,2.31374 3.18459,2.31374 z" />
  </g>
</svg>
