<?xml version="1.0" encoding="UTF-8" standalone="no"?>
<!-- Created with Inkscape (http://www.inkscape.org/) -->

<svg
   width="59.928001mm"
   height="23.309999mm"
   viewBox="0 0 59.928002 23.309999"
   version="1.1"
   id="svg443"
   sodipodi:docname="meidoypalitos.svg"
   inkscape:version="1.2.2 (732a01da63, 2022-12-09)"
   xmlns:inkscape="http://www.inkscape.org/namespaces/inkscape"
   xmlns:sodipodi="http://sodipodi.sourceforge.net/DTD/sodipodi-0.dtd"
   xmlns="http://www.w3.org/2000/svg"
   xmlns:svg="http://www.w3.org/2000/svg">
  <sodipodi:namedview
     id="namedview445"
     pagecolor="#ffffff"
     bordercolor="#000000"
     borderopacity="0.25"
     inkscape:showpageshadow="2"
     inkscape:pageopacity="0.0"
     inkscape:pagecheckerboard="0"
     inkscape:deskcolor="#d1d1d1"
     inkscape:document-units="mm"
     showgrid="false"
     inkscape:zoom="3.2284436"
     inkscape:cx="151.15643"
     inkscape:cy="71.086886"
     inkscape:window-width="1920"
     inkscape:window-height="1001"
     inkscape:window-x="-9"
     inkscape:window-y="-9"
     inkscape:window-maximized="1"
     inkscape:current-layer="layer1" />
  <defs
     id="defs440" />
  <g
     inkscape:label="Capa 1"
     inkscape:groupmode="layer"
     id="layer1"
     transform="translate(129.63289,-138.94334)">
    <g
       id="g40"
       transform="matrix(0.18255011,0,0,0.18255011,-175.54492,128.00859)">
      <path
         class="st3"
         d="m 415.1,151.9 c -1.1,0 -2,-1.2 -2,-1.8 V 98 c 0,-0.7 0.9,-1.8 2,-1.8 1.1,0 2,1.2 2,1.8 v 52.2 c 0,0.6 -0.9,1.7 -2,1.7 z"
         id="path36"
         style="fill:#55121c" />
      <path
         class="st3"
         d="m 443,124 c 0,1.1 -1.2,2 -1.8,2 h -52.1 c -0.6,0 -1.8,-0.9 -1.8,-2 0,-1.1 1.2,-2 1.8,-2 h 52.1 c 0.6,0 1.8,0.9 1.8,2 z"
         id="path38"
         style="fill:#55121c" />
    </g>
    <g
       id="g66"
       transform="matrix(0.18255011,0,0,0.18255011,-175.54492,128.00859)">
      <g
         id="g50">
        <g
           id="g44">
          <path
             class="st3"
             d="M 367.2,99.3 H 264.6 c -2.4,0 -4.4,-2 -4.4,-4.4 v -1.1 c 0,-2.4 2,-4.4 4.4,-4.4 h 102.6 c 2.5,0 4.6,2 4.6,4.6 v 0.9 c -0.1,2.3 -2.1,4.4 -4.6,4.4 z m -102.6,-7 c -0.8,0 -1.4,0.6 -1.4,1.4 v 1.1 c 0,0.8 0.6,1.4 1.4,1.4 h 102.6 c 0.9,0 1.6,-0.7 1.6,-1.6 v -0.9 c 0,-0.9 -0.7,-1.6 -1.6,-1.6 H 264.6 Z"
             id="path42"
             style="fill:#55121c" />
        </g>
        <g
           id="g48">
          <path
             class="st3"
             d="M 347.8,165.3 H 284 c -1.8,0 -3.3,-1.2 -3.8,-2.9 L 262.1,97.9 c -0.2,-0.8 0.2,-1.6 1,-1.8 0.8,-0.2 1.6,0.2 1.8,1 l 18.1,64.5 c 0.1,0.4 0.5,0.7 0.9,0.7 h 63.8 c 0.4,0 0.8,-0.3 0.9,-0.7 l 18.1,-64.5 c 0.2,-0.8 1.1,-1.3 1.8,-1 0.8,0.2 1.3,1 1,1.8 l -18.1,64.5 c -0.2,1.7 -1.8,2.9 -3.6,2.9 z"
             id="path46"
             style="fill:#55121c" />
        </g>
      </g>
      <g
         id="g64">
        <g
           id="g62">
          <path
             class="st3"
             d="m 285.7,135.7 c 1.9,0 2.6,-0.5 2.6,-1.9 v -7.7 h -2.6 V 125 c 2.6,0 3.3,-0.3 3.9,-2.7 h 1.6 v 11.5 c 0,1.4 0.7,1.9 2.6,1.9 v 0.7 h -8.1 z"
             id="path52"
             style="fill:#55121c" />
          <path
             class="st3"
             d="m 296.7,137.7 h -1.2 l 6.3,-16.6 h 1.2 z"
             id="path54"
             style="fill:#55121c" />
          <path
             class="st3"
             d="m 315.2,132.3 h 0.7 l -0.1,2.8 -0.1,1.2 h -11 c 0,-4.8 1.9,-5.3 5,-6.4 2.3,-0.9 3.4,-1.7 3.4,-3.8 0,-1.9 -0.7,-2.9 -2.4,-2.9 -1.1,0 -3.3,0.2 -2.4,3.5 l -2.9,0.4 c -0.9,-4.1 3.1,-5.1 5.5,-5.1 2.3,0 5.1,0.9 5.1,4 0,3.7 -3.7,4.2 -5.7,5 -2.6,0.9 -3.6,1.6 -3.6,3.4 h 6.6 c 1.3,0.1 1.9,-0.5 1.9,-2.1 z"
             id="path56"
             style="fill:#55121c" />
          <path
             class="st3"
             d="m 336.6,135.7 v 0.7 c -3.3,0 -4.9,-0.3 -5.7,-3.3 -0.7,-2.6 -0.7,-4.3 -3.3,-4.3 l -1.4,1.2 v 3.8 c 0,1.4 0.3,1.9 1.1,1.9 v 0.7 h -5.1 v -0.7 c 0.8,0 1.1,-0.5 1.1,-1.9 v -8.9 c 0,-1.4 -0.3,-1.9 -1.1,-1.9 v -0.7 h 5.1 v 0.7 c -0.8,0 -1.1,0.5 -1.1,1.9 v 3.6 l 5.2,-4.5 c 1,-0.9 1.1,-1 -0.9,-1 v -0.7 h 5.6 v 0.7 c -0.8,0 -2.1,0.1 -3.1,1 l -4.3,3.7 0.3,-0.2 v 0.2 c 2.9,0 3.7,1.7 4.7,4.8 0.9,2.6 1.7,3.2 2.9,3.2 z"
             id="path58"
             style="fill:#55121c" />
          <path
             class="st3"
             d="m 348,128 c 0.3,-0.9 0,-1.2 -0.4,-1.2 -0.3,0 -0.6,0.1 -0.7,0.3 0.5,0.6 0.8,1.4 0.8,2.3 0,2.2 -1.7,3.8 -4.8,3.8 -0.8,0 -1.5,-0.1 -2.1,-0.3 -0.4,0.3 -0.6,0.5 -0.6,0.8 0,0.6 0.7,0.6 2.9,0.4 3,-0.2 5.3,0.6 5.3,3 0,2.6 -2.6,3.7 -5.4,3.7 -3,0 -6,-0.9 -5.1,-4.3 l 2.9,0.4 c -0.9,2.3 0.5,2.8 2.2,2.8 1.7,0 2.5,-0.8 2.5,-2.1 0,-1.6 -1.1,-1.8 -3.1,-1.7 -2.7,0.1 -4.1,-0.1 -4.1,-1.5 0,-0.8 0.6,-1.5 1.6,-1.9 -1.2,-0.7 -1.8,-1.8 -1.8,-3.1 0,-2.2 1.7,-3.8 4.8,-3.8 1.5,0 2.6,0.3 3.4,1 0.4,-0.6 1.1,-1 2,-1 1.5,0 1.8,1 1.7,2 z m -3.3,1.1 c -0.4,-1.7 -1.3,-2.6 -2.6,-2.3 -1.1,0.3 -1.5,1.5 -1.1,3 0.4,1.7 1.3,2.6 2.6,2.3 1.1,-0.4 1.4,-1.6 1.1,-3 z"
             id="path60"
             style="fill:#55121c" />
        </g>
      </g>
    </g>
    <g
       id="g168"
       transform="matrix(0.18255011,0,0,0.18255011,-175.54492,128.00859)"
       inkscape:export-filename="meidoypalitos.svg"
       inkscape:export-xdpi="96"
       inkscape:export-ydpi="96">
      <g
         class="st2"
         id="g100"
         style="enable-background:new">
        <path
           class="st3"
           d="m 465.7,176.1 0.5,0.5 c -1.1,1.1 -1.9,2.4 -1.9,4.5 0,1.9 0.7,3.4 1.9,4.5 l -0.5,0.5 c -1.6,-1.1 -3,-2.5 -3,-5 0.1,-2.7 1.5,-3.9 3,-5 z"
           id="path68"
           style="fill:#55121c" />
        <path
           class="st3"
           d="m 474.1,182.6 c 0,1.7 -1.8,2.2 -3.4,2.2 -1.9,0 -3.4,-0.6 -3.4,-2 0,-1.3 1.2,-1.8 2,-2.1 -0.9,-0.4 -1.6,-1 -1.6,-2 0,-1.5 1.6,-2 3.2,-2 1.6,0 3,0.6 3,1.8 0,1 -0.9,1.5 -1.6,1.8 0.9,0.5 1.8,1.2 1.8,2.3 z m -1.7,0.3 c 0,-0.8 -0.6,-1.2 -1.8,-1.6 -0.2,-0.1 -0.4,-0.1 -0.6,-0.2 -1.2,0.6 -1.5,1 -1.5,1.7 0,0.8 0.6,1.5 2,1.5 1.3,-0.1 1.9,-0.6 1.9,-1.4 z m -3.2,-4.5 c 0,0.7 0.5,1 1.4,1.4 0.2,0.1 0.4,0.2 0.6,0.2 0.9,-0.4 1.2,-0.8 1.2,-1.4 0,-0.6 -0.4,-1.2 -1.7,-1.2 -1,-0.1 -1.5,0.4 -1.5,1 z"
           id="path70"
           style="fill:#55121c" />
        <path
           class="st3"
           d="m 482.1,184.8 c -1,0 -1.8,-0.5 -2.2,-1.2 h -0.1 v 2.3 c 0,0.8 0.2,1 0.6,1 v 0.4 h -2.8 v -0.4 c 0.4,0 0.6,-0.3 0.6,-1 v -5.7 c 0,-0.8 -0.2,-1 -0.6,-1 v -0.4 h 0.8 c 0.9,0 1.4,0.1 1.4,0.9 v 0.2 h 0.1 c 0.4,-0.8 1.3,-1.2 2.2,-1.2 1.5,0 2.8,1.1 2.8,3.1 0,1.9 -1.2,3 -2.8,3 z m -0.5,-5.6 c -1.1,0 -1.7,1 -1.7,2.5 0,1.5 0.5,2.5 1.7,2.5 1.2,0 1.6,-1 1.6,-2.5 0,-1.5 -0.5,-2.5 -1.6,-2.5 z"
           id="path72"
           style="fill:#55121c" />
        <path
           class="st3"
           d="m 491.9,183.7 v 0.5 c -0.2,0.3 -0.7,0.5 -1.1,0.5 -0.4,0 -1.1,-0.1 -1.1,-0.8 v -0.1 h -0.1 c -0.4,0.6 -1.1,1 -2.2,1 -1.2,0 -1.9,-0.5 -1.9,-1.5 0,-1.7 2.5,-2.1 4.2,-2.3 0,-1.2 -0.3,-1.8 -1.2,-1.8 -1,0 -1.4,0.5 -1,1.5 l -1.6,0.3 c -0.4,-1.3 0.6,-2.4 2.7,-2.4 1.9,0 2.7,0.8 2.7,2.9 v 1.7 c 0,0.7 0.2,0.8 0.6,0.5 z m -2.2,-1.5 v -0.7 c -1.4,0.2 -2.6,0.7 -2.6,1.6 0,0.6 0.3,0.9 0.8,0.9 1,0 1.7,-1 1.7,-1.8 v 0 z"
           id="path74"
           style="fill:#55121c" />
        <path
           class="st3"
           d="m 494.6,183.2 c 0,0.8 0.2,1 0.6,1 v 0.4 h -2.8 v -0.4 c 0.4,0 0.6,-0.3 0.6,-1 v -5.7 c 0,-0.8 -0.2,-1 -0.6,-1 v -0.4 h 0.8 c 0.9,0 1.4,0.1 1.4,1 z"
           id="path76"
           style="fill:#55121c" />
        <path
           class="st3"
           d="m 498,183.2 c 0,0.8 0.2,1 0.6,1 v 0.4 h -2.8 v -0.4 c 0.4,0 0.6,-0.3 0.6,-1 v -3.1 c 0,-0.8 -0.2,-1 -0.6,-1 v -0.4 h 0.8 c 1,0 1.4,0.1 1.4,1 z m -1.8,-5.8 c 0,-0.4 0.3,-0.7 0.9,-0.7 0.5,0 0.9,0.3 0.9,0.7 0,0.4 -0.3,0.7 -0.9,0.7 -0.6,0.1 -0.9,-0.2 -0.9,-0.7 z"
           id="path78"
           style="fill:#55121c" />
        <path
           class="st3"
           d="m 503.4,183.8 c -0.2,0.7 -0.8,1 -1.8,1 -1,0 -2,-0.3 -2,-1.9 v -3.5 h -0.9 v -0.6 c 0.9,-0.1 1.4,-0.4 1.4,-1.9 h 1 v 1.9 h 1.8 c 0,0.4 0,0.6 -0.6,0.6 h -1.2 v 3.3 c 0,0.9 0,1.5 0.5,1.5 0.3,0 0.4,-0.2 0.5,-0.6 z"
           id="path80"
           style="fill:#55121c" />
        <path
           class="st3"
           d="m 506.9,178.6 c 2.2,0 3.3,1.5 3.3,3.1 0,1.6 -1,3.1 -3.3,3.1 -2.2,0 -3.3,-1.5 -3.3,-3.1 0,-1.6 1,-3.1 3.3,-3.1 z m 0.3,5.5 c 1.1,-0.1 1.5,-1.1 1.3,-2.6 -0.2,-1.5 -0.8,-2.4 -1.9,-2.2 -1.1,0.1 -1.5,1.1 -1.3,2.6 0.2,1.5 0.7,2.4 1.9,2.2 z"
           id="path82"
           style="fill:#55121c" />
        <path
           class="st3"
           d="m 513.5,178.6 c 1.5,0 3,0.5 2.6,2.2 l -1.6,-0.2 c 0.4,-1.1 -0.3,-1.3 -0.9,-1.3 -0.7,0 -1,0.4 -1,0.8 0,0.5 0.3,0.8 1.3,1.1 1.3,0.3 2.4,0.7 2.4,1.9 0,1.4 -1.2,1.8 -2.6,1.8 -1.7,0 -3.3,-0.5 -2.8,-2.5 l 1.6,0.2 c -0.5,1.4 0.2,1.7 1.1,1.7 0.7,0 1,-0.4 1,-0.9 0,-0.7 -0.6,-0.9 -1.4,-1.1 -1.3,-0.4 -2.3,-0.7 -2.3,-1.9 0,-1.3 1.1,-1.8 2.6,-1.8 z"
           id="path84"
           style="fill:#55121c" />
        <path
           class="st3"
           d="m 522.5,178.6 c 1,0 1.8,0.5 2.2,1.2 h 0.1 v -2.3 c 0,-0.8 -0.2,-1 -0.6,-1 v -0.4 h 0.8 c 0.9,0 1.4,0.1 1.4,1 v 6.1 c 0,0.8 0.2,1 0.6,1 v 0.4 h -0.8 c -0.9,0 -1.4,-0.1 -1.4,-0.9 v -0.2 h -0.1 c -0.4,0.8 -1.3,1.2 -2.2,1.2 -1.5,0 -2.8,-1.1 -2.8,-3.1 0,-1.9 1.3,-3 2.8,-3 z m 0.5,5.6 c 1.1,0 1.7,-1 1.7,-2.5 0,-1.5 -0.5,-2.5 -1.7,-2.5 -1.1,0 -1.6,1 -1.6,2.5 0,1.5 0.5,2.5 1.6,2.5 z"
           id="path86"
           style="fill:#55121c" />
        <path
           class="st3"
           d="m 533.3,182.4 c 0.1,1.3 -0.8,2.4 -2.6,2.4 -2.3,0 -3.2,-1.3 -3.2,-2.9 0,-2 1.4,-3.2 3.3,-3.2 1.5,0 2.5,0.6 2.5,1.7 0,1.8 -2.6,2 -4.2,1.6 0,1.2 0.5,2.2 1.5,2.2 0.7,0 1.2,-0.3 1,-1.4 z m -4.2,-1.1 c 1.7,0.4 2.6,0 2.6,-1 0,-0.7 -0.3,-1.1 -1,-1.1 -1.1,0 -1.5,0.8 -1.6,2.1 z"
           id="path88"
           style="fill:#55121c" />
        <path
           class="st3"
           d="m 543.2,183.7 v 0.5 c -0.2,0.3 -0.7,0.5 -1.1,0.5 -0.4,0 -1.1,-0.1 -1.1,-0.8 v -0.1 h -0.1 c -0.4,0.6 -1.1,1 -2.2,1 -1.2,0 -1.9,-0.5 -1.9,-1.5 0,-1.7 2.5,-2.1 4.2,-2.3 0,-1.2 -0.3,-1.8 -1.2,-1.8 -1,0 -1.4,0.5 -1,1.5 l -1.6,0.3 c -0.4,-1.3 0.6,-2.4 2.7,-2.4 1.9,0 2.7,0.8 2.7,2.9 v 1.7 c 0.1,0.7 0.3,0.8 0.6,0.5 z m -2.2,-1.5 v -0.7 c -1.4,0.2 -2.6,0.7 -2.6,1.6 0,0.6 0.3,0.9 0.8,0.9 1,0 1.7,-1 1.7,-1.8 v 0 z"
           id="path90"
           style="fill:#55121c" />
        <path
           class="st3"
           d="m 549.5,180 c 0.2,-0.5 0,-0.7 -0.2,-0.7 -0.2,0 -0.3,0.1 -0.4,0.2 0.3,0.3 0.4,0.8 0.4,1.3 0,1.2 -1,2.1 -2.7,2.1 -0.4,0 -0.8,-0.1 -1.2,-0.2 -0.2,0.2 -0.3,0.3 -0.3,0.5 0,0.3 0.4,0.4 1.6,0.2 1.7,-0.1 2.9,0.3 2.9,1.7 0,1.5 -1.4,2.1 -3,2.1 -1.7,0 -3.3,-0.5 -2.9,-2.4 l 1.6,0.2 c -0.5,1.3 0.3,1.6 1.2,1.6 0.9,0 1.4,-0.4 1.4,-1.2 0,-0.9 -0.6,-1 -1.7,-1 -1.5,0.1 -2.3,-0.1 -2.3,-0.8 0,-0.4 0.3,-0.8 0.9,-1 -0.7,-0.4 -1,-1 -1,-1.8 0,-1.2 1,-2.1 2.7,-2.1 0.8,0 1.5,0.2 1.9,0.5 0.2,-0.3 0.6,-0.5 1.1,-0.5 0.8,0 1,0.6 0.9,1.1 z m -1.8,0.6 c -0.2,-1 -0.7,-1.5 -1.5,-1.3 -0.6,0.2 -0.8,0.8 -0.6,1.7 0.2,1 0.7,1.5 1.5,1.3 0.6,-0.3 0.8,-0.9 0.6,-1.7 z"
           id="path92"
           style="fill:#55121c" />
        <path
           class="st3"
           d="m 557.5,180.2 v 3.1 c 0,0.8 0.2,1 0.6,1 v 0.4 h -0.8 c -0.9,0 -1.4,-0.1 -1.4,-1 V 183 h -0.1 c -0.2,1.1 -0.9,1.8 -2.1,1.8 -1.2,0 -2.1,-0.7 -2.1,-2.3 v -2.4 c 0,-0.8 -0.2,-1 -0.6,-1 v -0.4 h 2.8 v 0.4 c -0.4,0 -0.6,0.3 -0.6,1 v 2.8 c 0,0.8 0.3,1.2 0.9,1.2 1.2,0 1.8,-1.7 1.8,-3.3 v -0.7 c 0,-0.8 -0.2,-1 -0.6,-1 v -0.4 h 2.8 v 0.4 c -0.4,0 -0.6,0.3 -0.6,1.1 z"
           id="path94"
           style="fill:#55121c" />
        <path
           class="st3"
           d="m 565.2,183.7 v 0.5 c -0.2,0.3 -0.7,0.5 -1.1,0.5 -0.4,0 -1.1,-0.1 -1.1,-0.8 v -0.1 h -0.1 c -0.4,0.6 -1.1,1 -2.2,1 -1.2,0 -1.9,-0.5 -1.9,-1.5 0,-1.7 2.5,-2.1 4.2,-2.3 0,-1.2 -0.3,-1.8 -1.2,-1.8 -1,0 -1.4,0.5 -1,1.5 l -1.6,0.3 c -0.4,-1.3 0.6,-2.4 2.7,-2.4 1.9,0 2.7,0.8 2.7,2.9 v 1.7 c 0,0.7 0.2,0.8 0.6,0.5 z m -2.2,-1.5 v -0.7 c -1.4,0.2 -2.6,0.7 -2.6,1.6 0,0.6 0.3,0.9 0.8,0.9 1,0 1.7,-1 1.7,-1.8 v 0 z"
           id="path96"
           style="fill:#55121c" />
        <path
           class="st3"
           d="m 566.5,186.1 -0.5,-0.5 c 1.1,-1.1 1.9,-2.5 1.9,-4.5 0,-2.1 -0.7,-3.4 -1.9,-4.5 l 0.5,-0.5 c 1.6,1.1 3,2.3 3,5 -0.1,2.5 -1.5,3.9 -3,5 z"
           id="path98"
           style="fill:#55121c" />
      </g>
      <g
         id="g166">
        <g
           id="g108">
          <path
             class="st4"
             d="m 474.5,110 c -1.9,0 -3.5,-1.6 -3.5,-3.5 v -12 c 0,-0.8 0.6,-1.4 1.4,-1.4 h 4.1 c 0.8,0 1.4,0.6 1.4,1.4 v 12 c 0.1,1.9 -1.4,3.5 -3.4,3.5 z m -0.6,-14.1 v 10.6 c 0,0.4 0.3,0.7 0.7,0.7 0.4,0 0.7,-0.3 0.7,-0.7 V 95.9 Z"
             id="path102"
             style="fill:#55111b" />
          <path
             class="st4"
             d="m 474.5,95.9 c -6.7,0 -12.2,-5.5 -12.2,-12.2 V 72.1 c 0,-6.7 5.5,-12.2 12.2,-12.2 6.7,0 12.2,5.5 12.2,12.2 v 11.6 c 0,6.7 -5.4,12.2 -12.2,12.2 z m 0,-33.2 c -5.2,0 -9.4,4.2 -9.4,9.4 v 11.6 c 0,5.2 4.2,9.4 9.4,9.4 v 0 c 5.2,0 9.4,-4.2 9.4,-9.4 V 72.1 c 0,-5.2 -4.2,-9.4 -9.4,-9.4 z"
             id="path104"
             style="fill:#55111b" />
          <path
             class="st5"
             d="M 472.5,94.5"
             id="path106"
             style="fill:none;stroke:#55111b;stroke-width:8;stroke-linecap:round;stroke-linejoin:round;stroke-miterlimit:10" />
        </g>
        <g
           id="g116">
          <path
             class="st4"
             d="m 502.2,110 c -1.9,0 -3.5,-1.6 -3.5,-3.5 v -12 c 0,-0.8 0.6,-1.4 1.4,-1.4 h 4.1 c 0.8,0 1.4,0.6 1.4,1.4 v 12 c 0.1,1.9 -1.4,3.5 -3.4,3.5 z m -0.6,-14.1 v 10.6 c 0,0.4 0.3,0.7 0.7,0.7 0.4,0 0.7,-0.3 0.7,-0.7 V 95.9 Z"
             id="path110"
             style="fill:#55111b" />
          <path
             class="st4"
             d="M 502.2,95.9 C 495.5,95.9 490,90.4 490,83.7 V 72.1 c 0,-6.7 5.5,-12.2 12.2,-12.2 6.7,0 12.2,5.5 12.2,12.2 v 11.6 c 0,6.7 -5.4,12.2 -12.2,12.2 z m 0,-33.2 c -5.2,0 -9.4,4.2 -9.4,9.4 v 11.6 c 0,5.2 4.2,9.4 9.4,9.4 v 0 c 5.2,0 9.4,-4.2 9.4,-9.4 V 72.1 c 0,-5.2 -4.2,-9.4 -9.4,-9.4 z"
             id="path112"
             style="fill:#55111b" />
          <path
             class="st5"
             d="M 500.2,94.5"
             id="path114"
             style="fill:none;stroke:#55111b;stroke-width:8;stroke-linecap:round;stroke-linejoin:round;stroke-miterlimit:10" />
        </g>
        <g
           id="g124">
          <path
             class="st4"
             d="m 530,110 c -1.9,0 -3.5,-1.6 -3.5,-3.5 v -12 c 0,-0.8 0.6,-1.4 1.4,-1.4 h 4.1 c 0.8,0 1.4,0.6 1.4,1.4 v 12 c 0,1.9 -1.5,3.5 -3.4,3.5 z m -0.7,-14.1 v 10.6 c 0,0.4 0.3,0.7 0.7,0.7 0.4,0 0.7,-0.3 0.7,-0.7 V 95.9 Z"
             id="path118"
             style="fill:#55111b" />
          <path
             class="st4"
             d="m 530,95.9 c -6.7,0 -12.2,-5.5 -12.2,-12.2 V 72.1 c 0,-6.7 5.5,-12.2 12.2,-12.2 6.7,0 12.2,5.5 12.2,12.2 v 11.6 c -0.1,6.7 -5.5,12.2 -12.2,12.2 z m 0,-33.2 c -5.2,0 -9.4,4.2 -9.4,9.4 v 11.6 c 0,5.2 4.2,9.4 9.4,9.4 v 0 c 5.2,0 9.4,-4.2 9.4,-9.4 V 72.1 c -0.1,-5.2 -4.3,-9.4 -9.4,-9.4 z"
             id="path120"
             style="fill:#55111b" />
          <path
             class="st5"
             d="M 527.9,94.5"
             id="path122"
             style="fill:none;stroke:#55111b;stroke-width:8;stroke-linecap:round;stroke-linejoin:round;stroke-miterlimit:10" />
        </g>
        <g
           id="g132">
          <path
             class="st4"
             d="m 557.7,110 c -1.9,0 -3.5,-1.6 -3.5,-3.5 v -12 c 0,-0.8 0.6,-1.4 1.4,-1.4 h 4.1 c 0.8,0 1.4,0.6 1.4,1.4 v 12 c 0,1.9 -1.5,3.5 -3.4,3.5 z M 557,95.9 v 10.6 c 0,0.4 0.3,0.7 0.7,0.7 0.4,0 0.7,-0.3 0.7,-0.7 V 95.9 Z"
             id="path126"
             style="fill:#55111b" />
          <path
             class="st4"
             d="m 557.7,95.9 c -6.7,0 -12.2,-5.5 -12.2,-12.2 V 72.1 c 0,-6.7 5.5,-12.2 12.2,-12.2 6.7,0 12.2,5.5 12.2,12.2 v 11.6 c -0.1,6.7 -5.5,12.2 -12.2,12.2 z m 0,-33.2 c -5.2,0 -9.4,4.2 -9.4,9.4 v 11.6 c 0,5.2 4.2,9.4 9.4,9.4 v 0 c 5.2,0 9.4,-4.2 9.4,-9.4 V 72.1 c -0.1,-5.2 -4.3,-9.4 -9.4,-9.4 z"
             id="path128"
             style="fill:#55111b" />
          <path
             class="st5"
             d="M 555.6,94.5"
             id="path130"
             style="fill:none;stroke:#55111b;stroke-width:8;stroke-linecap:round;stroke-linejoin:round;stroke-miterlimit:10" />
        </g>
        <g
           id="g140">
          <path
             class="st4"
             d="m 474.5,167.1 c -1.9,0 -3.5,-1.6 -3.5,-3.5 v -12 c 0,-0.8 0.6,-1.4 1.4,-1.4 h 4.1 c 0.8,0 1.4,0.6 1.4,1.4 v 12 c 0.1,2 -1.4,3.5 -3.4,3.5 z m -0.6,-14 v 10.6 c 0,0.4 0.3,0.7 0.7,0.7 0.4,0 0.7,-0.3 0.7,-0.7 v -10.6 z"
             id="path134"
             style="fill:#55111b" />
          <path
             class="st4"
             d="m 474.5,153.1 c -6.7,0 -12.2,-5.5 -12.2,-12.2 v -11.7 c 0,-6.7 5.5,-12.2 12.2,-12.2 6.7,0 12.2,5.5 12.2,12.2 v 11.6 c 0,6.8 -5.4,12.3 -12.2,12.3 z m 0,-33.3 c -5.2,0 -9.4,4.2 -9.4,9.4 v 11.6 c 0,5.2 4.2,9.4 9.4,9.4 v 0 c 5.2,0 9.4,-4.2 9.4,-9.4 v -11.6 c 0,-5.1 -4.2,-9.4 -9.4,-9.4 z"
             id="path136"
             style="fill:#55111b" />
          <path
             class="st5"
             d="M 472.5,151.7"
             id="path138"
             style="fill:none;stroke:#55111b;stroke-width:8;stroke-linecap:round;stroke-linejoin:round;stroke-miterlimit:10" />
        </g>
        <g
           id="g148">
          <path
             class="st4"
             d="m 502.2,167.1 c -1.9,0 -3.5,-1.6 -3.5,-3.5 v -12 c 0,-0.8 0.6,-1.4 1.4,-1.4 h 4.1 c 0.8,0 1.4,0.6 1.4,1.4 v 12 c 0.1,2 -1.4,3.5 -3.4,3.5 z m -0.6,-14 v 10.6 c 0,0.4 0.3,0.7 0.7,0.7 0.4,0 0.7,-0.3 0.7,-0.7 v -10.6 z"
             id="path142"
             style="fill:#55111b" />
          <path
             class="st4"
             d="m 502.2,153.1 c -6.7,0 -12.2,-5.5 -12.2,-12.2 v -11.7 c 0,-6.7 5.5,-12.2 12.2,-12.2 6.7,0 12.2,5.5 12.2,12.2 v 11.6 c 0,6.8 -5.4,12.3 -12.2,12.3 z m 0,-33.3 c -5.2,0 -9.4,4.2 -9.4,9.4 v 11.6 c 0,5.2 4.2,9.4 9.4,9.4 v 0 c 5.2,0 9.4,-4.2 9.4,-9.4 v -11.6 c 0,-5.1 -4.2,-9.4 -9.4,-9.4 z"
             id="path144"
             style="fill:#55111b" />
          <path
             class="st5"
             d="M 500.2,151.7"
             id="path146"
             style="fill:none;stroke:#55111b;stroke-width:8;stroke-linecap:round;stroke-linejoin:round;stroke-miterlimit:10" />
        </g>
        <g
           id="g156">
          <path
             class="st4"
             d="m 530,167.1 c -1.9,0 -3.5,-1.6 -3.5,-3.5 v -12 c 0,-0.8 0.6,-1.4 1.4,-1.4 h 4.1 c 0.8,0 1.4,0.6 1.4,1.4 v 12 c 0,2 -1.5,3.5 -3.4,3.5 z m -0.7,-14 v 10.6 c 0,0.4 0.3,0.7 0.7,0.7 0.4,0 0.7,-0.3 0.7,-0.7 v -10.6 z"
             id="path150"
             style="fill:#55111b" />
          <path
             class="st4"
             d="m 530,153.1 c -6.7,0 -12.2,-5.5 -12.2,-12.2 v -11.7 c 0,-6.7 5.5,-12.2 12.2,-12.2 6.7,0 12.2,5.5 12.2,12.2 v 11.6 c -0.1,6.8 -5.5,12.3 -12.2,12.3 z m 0,-33.3 c -5.2,0 -9.4,4.2 -9.4,9.4 v 11.6 c 0,5.2 4.2,9.4 9.4,9.4 v 0 c 5.2,0 9.4,-4.2 9.4,-9.4 v -11.6 c -0.1,-5.1 -4.3,-9.4 -9.4,-9.4 z"
             id="path152"
             style="fill:#55111b" />
          <path
             class="st5"
             d="M 527.9,151.7"
             id="path154"
             style="fill:none;stroke:#55111b;stroke-width:8;stroke-linecap:round;stroke-linejoin:round;stroke-miterlimit:10" />
        </g>
        <g
           id="g164">
          <path
             class="st4"
             d="m 557.7,167.1 c -1.9,0 -3.5,-1.6 -3.5,-3.5 v -12 c 0,-0.8 0.6,-1.4 1.4,-1.4 h 4.1 c 0.8,0 1.4,0.6 1.4,1.4 v 12 c 0,2 -1.5,3.5 -3.4,3.5 z m -0.7,-14 v 10.6 c 0,0.4 0.3,0.7 0.7,0.7 0.4,0 0.7,-0.3 0.7,-0.7 v -10.6 z"
             id="path158"
             style="fill:#55111b" />
          <path
             class="st4"
             d="m 557.7,153.1 c -6.7,0 -12.2,-5.5 -12.2,-12.2 v -11.7 c 0,-6.7 5.5,-12.2 12.2,-12.2 6.7,0 12.2,5.5 12.2,12.2 v 11.6 c -0.1,6.8 -5.5,12.3 -12.2,12.3 z m 0,-33.3 c -5.2,0 -9.4,4.2 -9.4,9.4 v 11.6 c 0,5.2 4.2,9.4 9.4,9.4 v 0 c 5.2,0 9.4,-4.2 9.4,-9.4 v -11.6 c -0.1,-5.1 -4.3,-9.4 -9.4,-9.4 z"
             id="path160"
             style="fill:#55111b" />
          <path
             class="st5"
             d="M 555.6,151.7"
             id="path162"
             style="fill:none;stroke:#55111b;stroke-width:8;stroke-linecap:round;stroke-linejoin:round;stroke-miterlimit:10" />
        </g>
      </g>
    </g>
  </g>
</svg>
