<?xml version="1.0" encoding="UTF-8" standalone="no"?>
<!-- Created with Inkscape (http://www.inkscape.org/) -->

<svg
   width="40.481243mm"
   height="28.15696mm"
   viewBox="0 0 40.481243 28.15696"
   version="1.1"
   id="svg554"
   xmlns:inkscape="http://www.inkscape.org/namespaces/inkscape"
   xmlns:sodipodi="http://sodipodi.sourceforge.net/DTD/sodipodi-0.dtd"
   xmlns="http://www.w3.org/2000/svg"
   xmlns:svg="http://www.w3.org/2000/svg">
  <sodipodi:namedview
     id="namedview556"
     pagecolor="#ffffff"
     bordercolor="#000000"
     borderopacity="0.25"
     inkscape:showpageshadow="2"
     inkscape:pageopacity="0.0"
     inkscape:pagecheckerboard="0"
     inkscape:deskcolor="#d1d1d1"
     inkscape:document-units="mm"
     showgrid="false" />
  <defs
     id="defs551" />
  <g
     inkscape:label="Capa 1"
     inkscape:groupmode="layer"
     id="layer1"
     transform="translate(-49.083699,-54.88098)">
    <g
       id="g104"
       transform="matrix(0.26458333,0,0,0.26458333,-92.396945,-31.264706)"
       inkscape:export-filename="moto.png"
       inkscape:export-xdpi="96"
       inkscape:export-ydpi="96">
      <path
         class="cls-2"
         d="m 643.87,416.87 c -1.16,0 -2.31,-0.32 -3.34,-0.96 -1.82,-1.12 -2.91,-3.05 -2.91,-5.16 0,-1.21 0.07,-2.3 0.2,-3.41 1.35,-11.98 10.17,-21.9 21.95,-24.68 2.17,-0.52 4.41,-0.79 6.65,-0.79 6.31,0 12.31,2.01 17.34,5.83 1.71,1.3 2.61,3.37 2.41,5.53 -0.21,2.19 -1.5,4.08 -3.45,5.05 0,0 0,0 0,0 l -0.93,0.46 c 0,0 -0.1,0.06 -0.14,0.08 l -9.89,4.9 c -0.06,0.03 -0.12,0.06 -0.18,0.08 l -24.8,12.36 c -0.93,0.46 -1.92,0.69 -2.9,0.69 z m 22.56,-30.81 c -1.91,0 -3.83,0.23 -5.69,0.67 -10.07,2.37 -17.61,10.85 -18.77,21.11 -0.12,0.96 -0.18,1.88 -0.18,2.85 0,0.97 0.58,1.46 0.93,1.67 0.66,0.41 1.45,0.45 2.12,0.11 l 0.44,-0.24 24.59,-12.24 c 0.06,-0.03 0.12,-0.06 0.19,-0.08 l 9.59,-4.76 c 0.05,-0.03 0.1,-0.06 0.16,-0.09 l 1.06,-0.52 c 0.65,-0.32 1.08,-0.96 1.14,-1.7 0.03,-0.35 0.02,-1.21 -0.77,-1.82 -4.3,-3.26 -9.42,-4.98 -14.82,-4.98 z m 15.37,10.37 z"
         id="path94"
         style="fill:#55111b" />
      <path
         class="cls-2"
         d="m 665.76,431.99 c -10.36,0 -19.42,-7.36 -21.52,-17.49 -0.19,-0.93 0.27,-1.87 1.12,-2.29 l 24.52,-12.2 c 0.06,-0.03 0.13,-0.06 0.19,-0.08 l 9.72,-4.82 c 0.85,-0.42 1.86,-0.22 2.49,0.48 3.51,3.97 5.45,9.09 5.45,14.44 0,12.11 -9.85,21.96 -21.96,21.96 z m -17.04,-16.8 c 2.25,7.4 9.18,12.62 17.04,12.62 9.81,0 17.79,-7.98 17.79,-17.79 0,-3.79 -1.2,-7.44 -3.41,-10.45 l -8.39,4.16 c -0.06,0.03 -0.12,0.06 -0.18,0.08 l -22.86,11.37 z"
         id="path96"
         style="fill:#55111b" />
      <path
         class="cls-2"
         d="m 581.08,432.01 c -12.12,0 -21.98,-9.86 -21.98,-21.98 0,-0.86 0.09,-1.74 0.18,-2.63 0.11,-1.07 1.01,-1.88 2.08,-1.88 h 39.42 c 1.07,0 1.97,0.81 2.08,1.87 0.09,0.89 0.18,1.77 0.18,2.63 0,12.12 -9.84,21.98 -21.94,21.98 z m -17.81,-22.32 c 0,0.11 0,0.22 0,0.33 0,9.82 7.99,17.81 17.81,17.81 9.82,0 17.77,-7.99 17.77,-17.81 0,-0.11 0,-0.22 0,-0.33 h -35.57 z"
         id="path98"
         style="fill:#55111b" />
      <path
         class="cls-2"
         d="m 639.9,409.69 h -82.24 c -4.82,0 -8.74,-3.91 -8.74,-8.72 0,-0.28 0,-0.53 0.03,-0.81 0.73,-8.49 3.45,-20.57 12.29,-29.77 0.39,-0.41 0.93,-0.64 1.5,-0.64 h 8.76 c 4.09,0 7.42,-3.32 7.42,-7.4 v -0.5 c 0,-0.95 0.64,-1.78 1.56,-2.02 3.12,-0.81 6.43,-1.39 10.13,-1.75 2.57,-0.2 5.08,0.65 6.94,2.35 1.87,1.7 2.91,4.03 2.94,6.55 l 0.13,15.19 c 0.03,3.21 2.67,5.82 5.88,5.82 h 16.08 c 3.26,0 5.9,-2.64 5.9,-5.88 v -48.98 c 0,-3.01 2.45,-5.47 5.47,-5.47 h 18.42 c 2.83,0 5.57,1.16 7.51,3.19 2.16,2.1 3.3,5.11 3.08,8.2 -0.41,5.54 -5.26,9.88 -11.05,9.88 h -5.74 c -0.75,0 -1.29,0.54 -1.29,1.29 0,0.3 0.08,0.55 0.24,0.76 l 8.75,11.36 c 4.33,5.61 7.34,12.28 8.7,19.3 l 0.37,1.94 c 0.12,0.64 -0.05,1.29 -0.48,1.78 l -0.65,0.73 c -0.29,0.32 -0.67,0.55 -1.09,0.65 -10.06,2.37 -17.6,10.85 -18.76,21.1 -0.12,1.06 -1.01,1.85 -2.07,1.85 z m -76.25,-35.77 c -7.52,8.25 -9.9,18.98 -10.55,26.62 -0.02,0.16 -0.01,0.29 -0.01,0.43 0,2.51 2.05,4.55 4.57,4.55 h 80.44 c 1.94,-10.76 9.92,-19.56 20.49,-22.54 l -0.11,-0.55 c -1.23,-6.37 -3.97,-12.44 -7.9,-17.54 l -8.74,-11.35 c -0.73,-0.93 -1.12,-2.08 -1.12,-3.32 0,-3.06 2.4,-5.47 5.47,-5.47 h 5.74 c 3.62,0 6.64,-2.64 6.89,-6.01 0.13,-1.86 -0.55,-3.67 -1.88,-4.97 -1.21,-1.26 -2.85,-1.95 -4.55,-1.95 h -18.42 c -0.71,0 -1.29,0.58 -1.29,1.29 v 48.98 c 0,5.54 -4.52,10.05 -10.07,10.05 h -16.08 c -5.49,0 -10,-4.46 -10.05,-9.95 L 596.35,367 c -0.01,-1.35 -0.57,-2.59 -1.58,-3.51 -1.02,-0.93 -2.36,-1.39 -3.76,-1.27 -2.85,0.28 -5.48,0.69 -7.95,1.26 -0.58,5.85 -5.53,10.43 -11.54,10.43 h -7.86 z"
         id="path100"
         style="fill:#55111b" />
      <path
         class="cls-2"
         d="m 571.5,373.92 h -25.17 c -6.4,0 -11.6,-5.19 -11.6,-11.58 v -25.15 c 0,-6.4 5.2,-11.6 11.6,-11.6 h 25.17 c 6.4,0 11.6,5.21 11.6,11.6 v 25.15 c 0,6.38 -5.21,11.58 -11.6,11.58 z m -25.17,-44.16 c -4.1,0 -7.43,3.33 -7.43,7.43 v 25.15 c 0,4.08 3.33,7.4 7.43,7.4 h 25.17 c 4.1,0 7.43,-3.32 7.43,-7.4 v -25.15 c 0,-4.1 -3.33,-7.43 -7.43,-7.43 z"
         id="path102"
         style="fill:#55111b" />
    </g>
  </g>
</svg>
