<?xml version="1.0" encoding="UTF-8" standalone="no"?>
<!-- Created with Inkscape (http://www.inkscape.org/) -->

<svg
   width="90.97084mm"
   height="59.637505mm"
   viewBox="0 0 90.97084 59.637505"
   version="1.1"
   id="svg5"
   xmlns:inkscape="http://www.inkscape.org/namespaces/inkscape"
   xmlns:sodipodi="http://sodipodi.sourceforge.net/DTD/sodipodi-0.dtd"
   xmlns="http://www.w3.org/2000/svg"
   xmlns:svg="http://www.w3.org/2000/svg">
  <sodipodi:namedview
     id="namedview7"
     pagecolor="#ffffff"
     bordercolor="#000000"
     borderopacity="0.25"
     inkscape:showpageshadow="2"
     inkscape:pageopacity="0.0"
     inkscape:pagecheckerboard="0"
     inkscape:deskcolor="#d1d1d1"
     inkscape:document-units="mm"
     showgrid="false" />
  <defs
     id="defs2" />
  <g
     inkscape:label="Capa 1"
     inkscape:groupmode="layer"
     id="layer1"
     transform="translate(-21.215809,-90.290654)">
    <path
       style="fill:none;stroke:#000000;stroke-width:0.0960001;stroke-opacity:1;paint-order:fill markers stroke"
       d="m 47.797298,107.63513 c -9.143756,-13.042841 -33.813513,9.96413 -24.445947,-2.91892 11.82779,-16.266539 14.498751,-15.943008 34.297296,-12.4054 6.163243,1.10125 11.846249,4.333066 17.148648,7.662162 10.379302,6.516618 21.87821,13.154368 28.094595,23.716218 3.83526,6.51622 11.21312,7.07874 8.75675,14.22972 -2.77282,8.07225 -14.128993,4.50013 -21.527016,8.75677 -13.034733,7.49985 -8.291083,-0.0905 -22.98649,-3.28379 -8.995627,-1.95474 -6.932431,-13.5 -6.932431,-13.5 -4.208943,-9.59868 -16.815206,-0.5092 -18.608109,-2.55405 -3.29133,-3.75385 9.06856,-15.61479 6.202704,-19.70271 z"
       id="path236"
       sodipodi:nodetypes="sssssssssss"
       inkscape:export-filename="path236.svg"
       inkscape:export-xdpi="96"
       inkscape:export-ydpi="96" />
  </g>
</svg>
