<?xml version="1.0" encoding="UTF-8" standalone="no"?>
<!-- Created with Inkscape (http://www.inkscape.org/) -->

<svg
   width="42.895752mm"
   height="50.814056mm"
   viewBox="0 0 42.895752 50.814056"
   version="1.1"
   id="svg5"
   sodipodi:docname="path301.svg"
   inkscape:version="1.2.2 (732a01da63, 2022-12-09)"
   xmlns:inkscape="http://www.inkscape.org/namespaces/inkscape"
   xmlns:sodipodi="http://sodipodi.sourceforge.net/DTD/sodipodi-0.dtd"
   xmlns="http://www.w3.org/2000/svg"
   xmlns:svg="http://www.w3.org/2000/svg">
  <sodipodi:namedview
     id="namedview7"
     pagecolor="#ffffff"
     bordercolor="#000000"
     borderopacity="0.25"
     inkscape:showpageshadow="2"
     inkscape:pageopacity="0.0"
     inkscape:pagecheckerboard="0"
     inkscape:deskcolor="#d1d1d1"
     inkscape:document-units="mm"
     showgrid="false"
     inkscape:zoom="4.2384106"
     inkscape:cx="81.280469"
     inkscape:cy="134.13047"
     inkscape:window-width="1920"
     inkscape:window-height="1001"
     inkscape:window-x="-9"
     inkscape:window-y="-9"
     inkscape:window-maximized="1"
     inkscape:current-layer="layer1" />
  <defs
     id="defs2" />
  <g
     inkscape:label="Capa 1"
     inkscape:groupmode="layer"
     id="layer1"
     transform="translate(-136.95699,-181.95556)">
    <rect
       style="fill:#d2691e;stroke-width:0.264999;stroke-dasharray:none;fill-opacity:1"
       id="rect1720"
       width="43.073338"
       height="51.001339"
       x="136.89456"
       y="181.89313" />
    <path
       style="fill:#fdf502;stroke-width:0.265;fill-opacity:1;stroke-dasharray:none"
       id="path301"
       d="m 161.12229,181.95585 c -4.10417,3.22423 -8.05958,6.63126 -12.10038,9.93382 -3.65584,3.20665 -7.58733,6.10956 -11.13434,9.44002 -1.1864,1.37774 -1.16238,2.08254 -0.3565,3.60585 1.85964,2.58769 3.60825,5.2506 5.34465,7.92218 1.06985,1.50358 1.89143,3.18819 3.09816,4.59487 0.54687,0.63749 0.71439,0.73819 1.32961,1.25367 1.68826,0.96222 3.04618,2.18074 4.89897,2.54432 1.694,0.33241 3.48994,0.26042 5.20551,0.27891 3.54199,0.004 7.08391,-0.02 10.62592,-0.0226 0.47404,0.001 0.94807,0.002 1.42211,0.003 0,0 -3.08571,-2.24014 -3.08571,-2.24014 v 0 c -0.46626,0.005 -0.93251,0.009 -1.39877,0.0138 -3.54225,0.0255 -7.08481,0.0534 -10.62705,0.0117 -1.39731,-0.0336 -2.81172,-0.0325 -4.19924,-0.22832 -0.3415,-0.0482 -0.68256,-0.10741 -1.01609,-0.19523 -0.27375,-0.0721 -1.03062,-0.44823 -0.80066,-0.28314 0.81784,0.58714 1.72276,1.04235 2.58414,1.56353 -0.62443,-0.46645 -0.84507,-0.59036 -1.3966,-1.18615 -1.27844,-1.38103 -2.11514,-3.09897 -3.21977,-4.60788 -1.71499,-2.61869 -3.36734,-5.28422 -5.19557,-7.82526 -0.78262,-1.35723 -1.02025,-1.84225 0.0618,-3.19171 3.37362,-3.44491 7.18423,-6.43827 10.81589,-9.59871 4.07699,-3.32213 8.1275,-6.70406 12.47754,-9.66749 0,0 -3.33359,-2.11933 -3.33359,-2.11933 z"
       inkscape:export-filename="path301.png"
       inkscape:export-xdpi="96"
       inkscape:export-ydpi="96" />
    <path
       style="fill:#fdf502;stroke-width:0.265;fill-opacity:1;stroke-dasharray:none"
       id="path305"
       d="m 156.41022,209.12984 c 3.97755,-0.12726 7.95606,-7.9e-4 11.93287,0.0874 3.18041,0.16255 6.39862,-0.0237 9.55361,0.48138 1.18343,0.37561 4.44796,2.06347 -2.01783,-1.26942 -0.094,-0.0484 0.15072,0.15023 0.20944,0.23813 0.13814,0.20679 0.14962,0.34286 0.20845,0.57978 -0.0599,1.39618 -0.62831,2.77064 -1.14028,4.0575 -1.16819,2.6444 -2.62335,5.14566 -3.96804,7.7013 -1.35429,2.64058 -2.76585,5.25033 -4.2136,7.84045 -0.38481,0.65052 -0.74567,1.31443 -1.12063,1.97056 0,0 3.39424,1.95269 3.39424,1.95269 v 0 c 0.36134,-0.66581 0.70383,-1.34125 1.0737,-2.00249 1.38328,-2.62799 2.76494,-5.25644 4.13427,-7.89186 1.34593,-2.56849 2.89683,-5.02949 4.06493,-7.68885 0.562,-1.34873 1.1444,-2.75199 1.33138,-4.20848 -0.31619,-2.41177 -2.96664,-3.05963 -5.06922,-3.60722 -3.11704,-0.36265 -6.26652,-0.17049 -9.39586,-0.31152 -4.05391,-0.10354 -8.10692,-0.20962 -12.16202,-0.24308 0,0 3.18459,2.31374 3.18459,2.31374 z" />
  </g>
</svg>
