<?xml version="1.0" encoding="UTF-8" standalone="no"?>
<!-- Created with Inkscape (http://www.inkscape.org/) -->

<svg
   width="59.928001mm"
   height="23.309999mm"
   viewBox="0 0 59.928002 23.309999"
   version="1.1"
   id="svg3748"
   sodipodi:docname="postre.svg"
   inkscape:version="1.2.2 (732a01da63, 2022-12-09)"
   xmlns:inkscape="http://www.inkscape.org/namespaces/inkscape"
   xmlns:sodipodi="http://sodipodi.sourceforge.net/DTD/sodipodi-0.dtd"
   xmlns="http://www.w3.org/2000/svg"
   xmlns:svg="http://www.w3.org/2000/svg">
  <sodipodi:namedview
     id="namedview3750"
     pagecolor="#ffffff"
     bordercolor="#000000"
     borderopacity="0.25"
     inkscape:showpageshadow="2"
     inkscape:pageopacity="0.0"
     inkscape:pagecheckerboard="0"
     inkscape:deskcolor="#d1d1d1"
     inkscape:document-units="mm"
     showgrid="false"
     inkscape:zoom="3.9961993"
     inkscape:cx="113.10747"
     inkscape:cy="38.911974"
     inkscape:window-width="1920"
     inkscape:window-height="1001"
     inkscape:window-x="-9"
     inkscape:window-y="-9"
     inkscape:window-maximized="1"
     inkscape:current-layer="layer1" />
  <defs
     id="defs3745" />
  <g
     inkscape:label="Capa 1"
     inkscape:groupmode="layer"
     id="layer1"
     transform="translate(-125.31166,-223.99752)">
    <g
       id="g5642"
       transform="matrix(0.18123987,0,0,0.18123987,80.673347,212.70628)">
      <polygon
         class="st4"
         points="345.9,136.8 532.4,85.1 471.9,63.8 285.2,114.9 "
         id="polygon5574"
         style="fill:#fcc008;stroke:#55121c;stroke-width:3;stroke-linecap:round;stroke-linejoin:round" />
      <polygon
         class="st4"
         points="285.2,167.3 285.2,114.9 345.9,136.8 345.9,189.1 "
         id="polygon5576"
         style="fill:#fcc008;stroke:#55121c;stroke-width:3;stroke-linecap:round;stroke-linejoin:round" />
      <g
         id="g5582">
        <path
           class="st3"
           d="m 326,153.2 c 0.4,-0.4 0.6,-1 0.5,-1.6 0,-0.5 -0.2,-1.1 -0.5,-1.7 0,-0.1 -0.1,-0.1 -0.1,-0.2 -0.7,-1.2 -0.7,-2.3 0,-3 0.1,-0.1 0.1,-0.1 0.1,-0.2 0.8,-0.9 0.6,-2.4 -0.6,-3.8 0,0 0,0 0,-0.1 l -0.1,-0.1 c -0.6,-0.7 -1.4,-1.2 -2.3,-1.5 -1.1,-0.4 -1.7,-0.6 -2.8,-1 -0.8,-0.3 -1.2,-0.4 -2,-0.7 -1,-0.4 -1.5,-0.5 -2.5,-0.9 -0.1,-0.1 -0.2,-0.1 -0.3,-0.1 -1,-0.4 -1.5,-0.5 -2.5,-0.9 -0.8,-0.3 -1.2,-0.4 -2,-0.7 -1.1,-0.4 -1.7,-0.6 -2.8,-1 -0.8,-0.3 -1.6,-0.4 -2.3,-0.1 h -0.1 v 0 c -1.2,0.5 -1.4,1.9 -0.6,3.4 0.1,0.1 0.1,0.2 0.1,0.3 0.7,1.2 0.7,2.3 0,3 l -0.1,0.1 c -0.3,0.4 -0.5,0.8 -0.5,1.3 -0.1,0.6 0.1,1.3 0.5,2 0.1,0.1 0.1,0.2 0.1,0.3 0.7,1.2 0.7,2.3 0,3 l -0.1,0.1 c -0.9,0.9 -0.6,2.5 0.6,3.8 0,0.1 0.1,0.1 0.1,0.1 0.3,0.3 0.6,0.6 0.9,0.8 0.4,0.3 0.9,0.6 1.4,0.7 0.9,0.3 1.4,0.5 2.3,0.8 1.2,0.4 1.8,0.7 3,1.1 0.8,0.3 1.2,0.4 2,0.7 0.1,0.1 0.2,0.1 0.3,0.1 0.8,0.3 1.2,0.4 2,0.7 1.2,0.4 1.8,0.7 3,1.1 0.9,0.3 1.4,0.5 2.3,0.8 0.5,0.2 0.9,0.3 1.4,0.2 0.3,0 0.6,-0.1 0.9,-0.2 h 0.1 c 1.2,-0.5 1.4,-1.9 0.6,-3.4 0,-0.1 -0.1,-0.1 -0.1,-0.2 -0.7,-1.2 -0.7,-2.3 0,-3 -0.1,0.1 0,0.1 0.1,0 z"
           id="path5578"
           style="fill:#55121c" />
        <path
           class="st1"
           d="m 321.5,152.1 c 0,1.8 -1.5,2.5 -4.9,1.3 -3.4,-1.2 -5.5,-2 -5.6,-2 -0.5,-0.2 -0.8,-0.4 -0.8,-0.7 0,-0.3 0.1,-0.4 0.6,-0.8 0.3,-0.3 0.3,-0.7 0.3,-1.8 v -3.7 c 0,-1 0,-1.5 -0.3,-2 -0.5,-0.7 -0.6,-0.9 -0.6,-1.2 0,-0.3 0.3,-0.4 0.8,-0.2 0,0 2.9,1.1 4.7,1.7 2.7,1 4.7,2.6 4.7,4.4 0,1.2 -0.7,1.8 -2.2,1.5 2.1,0.8 3.3,2.3 3.3,3.5 z m -7,-6.4 c 0,0.6 0.2,0.9 0.8,1.1 l 0.2,0.1 c 0.9,0.3 1.5,-0.1 1.5,-0.9 0,-0.8 -0.5,-1.7 -1.5,-2 l -0.2,-0.1 c -0.5,-0.2 -0.8,0 -0.8,0.6 z m 3.3,5.1 c 0,-1 -0.9,-2 -2,-2.4 0,0 -0.2,-0.1 -0.3,-0.1 -0.8,-0.3 -1,-0.2 -1,0.5 v 1.6 c 0,0.7 0.2,0.9 1,1.2 0.1,0 0.3,0.1 0.3,0.1 1.2,0.5 2,0.1 2,-0.9 z"
           id="path5580"
           style="fill:#fbc009" />
      </g>
      <polygon
         class="st4"
         points="532.4,137.4 532.4,85.1 345.9,136.8 345.9,189.1 "
         id="polygon5584"
         style="fill:#fcc008;stroke:#55121c;stroke-width:3;stroke-linecap:round;stroke-linejoin:round" />
      <g
         id="g5634">
        <g
           id="g5612">
          <path
             class="st3"
             d="m 413.8,155.3 c 0.3,-0.5 0.4,-0.8 0.7,-1.3 0.8,0.4 1.2,1.2 1.2,2.4 0,2 -1.6,3.9 -3.5,4.4 -1.9,0.5 -3.5,-0.6 -3.4,-2.6 0,-1.1 0.5,-2.2 1.3,-3.1 0.3,0.4 0.4,0.6 0.7,0.9 -0.4,0.5 -0.7,1.1 -0.8,1.8 0,1.4 1.1,1.9 2.2,1.6 1.1,-0.3 2.3,-1.3 2.3,-2.7 0,-0.7 -0.3,-1.2 -0.7,-1.4 z"
             id="path5586"
             style="fill:#55121c" />
          <path
             class="st3"
             d="m 416.9,148.4 c -1.1,0.6 -1.6,0.9 -2.7,1.4 v 0.1 c -0.1,0.4 -0.2,0.6 -0.3,1.1 0.9,0 1.4,0 2.3,0 -0.1,0.6 -0.2,0.8 -0.3,1.4 -2.6,0 -3.9,0 -6.5,0 0.2,-1 0.4,-1.5 0.6,-2.4 0.4,-1.6 1.5,-2.6 2.8,-2.6 0.8,0 1.3,0.5 1.5,1.2 1.2,-0.7 1.8,-1 3,-1.7 -0.2,0.6 -0.3,0.9 -0.4,1.5 z m -4.1,2.6 c 0.1,-0.4 0.2,-0.6 0.3,-1.1 0.2,-0.7 0,-1.2 -0.6,-1.2 -0.6,0 -1.1,0.5 -1.3,1.2 -0.1,0.4 -0.2,0.6 -0.3,1.1 0.8,0 1.2,0 1.9,0 z"
             id="path5588"
             style="fill:#55121c" />
          <path
             class="st3"
             d="m 418.7,141.2 c 0.4,0.1 0.6,0.2 1.1,0.3 -0.8,1.6 -1.1,2.4 -1.9,4.1 -2.4,-0.6 -3.5,-1 -5.9,-1.6 0.7,-1.6 1.1,-2.4 1.8,-4 0.4,0.1 0.6,0.2 1.1,0.3 -0.5,1.1 -0.7,1.6 -1.2,2.6 0.5,0.1 0.8,0.2 1.3,0.4 0.5,-1 0.7,-1.4 1.1,-2.4 0.4,0.1 0.6,0.2 1.1,0.3 -0.5,1 -0.7,1.4 -1.1,2.4 0.5,0.1 0.8,0.2 1.4,0.4 0.4,-1.2 0.7,-1.7 1.2,-2.8 z"
             id="path5590"
             style="fill:#55121c" />
          <path
             class="st3"
             d="m 420.5,130 c 1.9,1.3 2.9,2 4.9,3.4 -0.4,0.5 -0.5,0.7 -0.9,1.2 -1.3,-0.9 -1.9,-1.3 -3.2,-2.2 0.4,1.4 0.6,2.1 1,3.5 -0.1,0.2 -0.2,0.2 -0.3,0.4 -1.5,0.1 -2.2,0.1 -3.7,0.2 1.3,0.9 1.9,1.3 3.2,2.2 -0.4,0.5 -0.5,0.7 -0.9,1.2 -1.9,-1.3 -2.9,-2 -4.9,-3.4 0.4,-0.5 0.6,-0.8 1,-1.3 1.6,-0.1 2.4,-0.1 4,-0.2 -0.4,-1.5 -0.6,-2.2 -1,-3.7 0.2,-0.5 0.4,-0.8 0.8,-1.3 z"
             id="path5592"
             style="fill:#55121c" />
          <path
             class="st3"
             d="m 429.7,128 c -1,0.8 -1.5,1.2 -2.4,2 0.1,0.5 0.2,0.8 0.3,1.3 -0.5,0.4 -0.7,0.6 -1.2,1 -0.5,-2.7 -0.7,-4.1 -1.2,-6.8 0.5,-0.5 0.8,-0.7 1.4,-1.2 2.2,1.3 3.2,1.9 5.4,3.2 -0.5,0.4 -0.7,0.6 -1.2,1 -0.5,-0.1 -0.7,-0.3 -1.1,-0.5 z m -0.9,-0.6 -2.3,-1.4 c 0.2,1.2 0.3,1.7 0.6,2.9 0.7,-0.6 1,-0.9 1.7,-1.5 z"
             id="path5594"
             style="fill:#55121c" />
          <path
             class="st3"
             d="m 437.3,122.6 c 0.3,0.9 -0.2,2.3 -1.9,3.2 -1.2,0.7 -2.4,0.8 -3,-0.1 0.5,-0.4 0.7,-0.6 1.1,-1 0.2,0.3 0.7,0.5 1.6,0 0.6,-0.4 1.1,-0.9 1,-1.4 -0.2,-0.6 -0.9,-0.2 -2,0.1 -1.4,0.4 -2,0 -2.2,-0.8 -0.3,-1.2 0.4,-2.4 1.8,-3.1 1.1,-0.6 2.1,-0.6 2.6,0.2 -0.5,0.4 -0.7,0.6 -1.1,0.9 -0.2,-0.3 -0.6,-0.5 -1.2,-0.1 -0.5,0.3 -0.9,0.8 -0.8,1.3 0.2,0.7 1,0.3 1.7,0.1 1.4,-0.4 2.1,-0.3 2.4,0.7 z"
             id="path5596"
             style="fill:#55121c" />
          <path
             class="st3"
             d="m 448.4,114.9 c -0.3,2.8 -0.4,4.2 -0.7,7 -0.5,0.1 -0.8,0.1 -1.3,0.2 0.1,-1.2 0.2,-1.7 0.3,-2.9 -1.1,0.2 -1.7,0.3 -2.8,0.5 -0.1,1.2 -0.2,1.7 -0.3,2.9 -0.5,0.1 -0.8,0.1 -1.3,0.2 0.3,-2.8 0.4,-4.2 0.7,-7 0.5,-0.1 0.8,-0.1 1.3,-0.2 -0.1,1.1 -0.2,1.7 -0.3,2.8 1.1,-0.2 1.7,-0.3 2.8,-0.5 0.1,-1.1 0.2,-1.7 0.3,-2.8 0.5,-0.1 0.7,-0.1 1.3,-0.2 z"
             id="path5598"
             style="fill:#55121c" />
          <path
             class="st3"
             d="m 453.5,120.9 c -0.2,0.5 -0.2,0.8 -0.4,1.3 -1.5,-0.1 -2.2,-0.2 -3.7,-0.3 0.9,-2.8 1.4,-4.2 2.3,-7.1 1.5,0.1 2.2,0.2 3.6,0.3 -0.2,0.5 -0.2,0.8 -0.4,1.3 -1,-0.1 -1.5,-0.1 -2.4,-0.2 -0.2,0.6 -0.3,0.9 -0.5,1.6 0.9,0.1 1.3,0.1 2.2,0.2 -0.2,0.5 -0.2,0.8 -0.4,1.3 -0.9,-0.1 -1.3,-0.1 -2.2,-0.2 -0.2,0.7 -0.3,1 -0.5,1.7 0.9,0 1.4,0.1 2.4,0.1 z"
             id="path5600"
             style="fill:#55121c" />
          <path
             class="st3"
             d="m 458.4,122.5 c -0.2,0.5 -0.4,0.7 -0.6,1.2 -1.3,-0.5 -2,-0.7 -3.3,-1.2 1.4,-2.7 2.1,-4.1 3.5,-6.8 0.4,0.2 0.7,0.2 1.1,0.4 -1.1,2.2 -1.7,3.3 -2.9,5.6 0.9,0.3 1.3,0.5 2.2,0.8 z"
             id="path5602"
             style="fill:#55121c" />
          <path
             class="st3"
             d="m 462.8,125.2 c -0.8,-0.6 -1.2,-0.9 -2,-1.4 -0.5,0.4 -0.8,0.6 -1.3,1 -0.4,-0.3 -0.6,-0.4 -1,-0.7 2.6,-1.9 3.9,-2.9 6.5,-4.9 0.5,0.3 0.7,0.5 1.1,0.8 -1.2,3 -1.8,4.4 -3,7.4 -0.4,-0.3 -0.6,-0.4 -1,-0.7 0.3,-0.7 0.5,-1 0.7,-1.5 z m 0.6,-1.3 c 0.5,-1.3 0.8,-1.9 1.4,-3.2 -1.1,0.8 -1.6,1.3 -2.8,2.1 0.5,0.5 0.8,0.7 1.4,1.1 z"
             id="path5604"
             style="fill:#55121c" />
          <path
             class="st3"
             d="m 469.6,129.9 c -1.7,1.5 -3.6,1.5 -4.7,-0.2 -0.4,-0.6 -0.6,-0.9 -1,-1.6 2.3,-2 3.5,-3 5.8,-5 0.4,0.6 0.6,0.9 1,1.6 1.1,1.7 0.6,3.7 -1.1,5.2 z m -0.7,-1 c 1.3,-1.1 1.4,-2.4 0.8,-3.3 -0.2,-0.2 -0.2,-0.3 -0.4,-0.6 -1.5,1.3 -2.2,1.9 -3.7,3.2 0.2,0.2 0.2,0.4 0.4,0.6 0.6,0.9 1.6,1.2 2.9,0.1 z"
             id="path5606"
             style="fill:#55121c" />
          <path
             class="st3"
             d="m 469.4,136.4 c -0.3,-1 -0.4,-1.5 -0.7,-2.5 -0.6,0.1 -0.8,0.2 -1.4,0.3 -0.1,-0.5 -0.2,-0.8 -0.4,-1.3 2.9,-0.5 4.3,-0.8 7.1,-1.3 0.2,0.6 0.2,0.9 0.4,1.4 -2.4,2.3 -3.5,3.4 -5.9,5.8 -0.1,-0.5 -0.2,-0.8 -0.4,-1.3 0.6,-0.4 0.9,-0.6 1.3,-1.1 z m 1,-0.9 c 1,-1 1.5,-1.5 2.6,-2.4 -1.2,0.2 -1.8,0.4 -3.1,0.6 0.2,0.7 0.3,1 0.5,1.8 z"
             id="path5608"
             style="fill:#55121c" />
          <path
             class="st3"
             d="m 470.6,144.4 c -1,0.3 -2.1,-0.1 -2.1,-1.9 0,-1.3 0.5,-2.6 1.6,-3.2 0.2,0.5 0.2,0.7 0.4,1.2 -0.4,0.2 -0.9,0.8 -0.9,1.7 0,0.7 0.3,1.1 0.9,1 0.7,-0.2 0.7,-1 1,-2.1 0.3,-1.5 1,-2.1 1.9,-2.4 1.3,-0.4 2.1,0.4 2.1,1.8 0,1.1 -0.5,2.2 -1.5,2.8 -0.1,-0.5 -0.2,-0.7 -0.3,-1.2 0.4,-0.2 0.7,-0.6 0.7,-1.3 0,-0.6 -0.3,-0.9 -0.8,-0.8 -0.8,0.2 -0.9,1.1 -1,1.8 -0.4,1.5 -0.9,2.2 -2,2.6 z"
             id="path5610"
             style="fill:#55121c" />
        </g>
        <g
           id="g5632">
          <path
             class="st3"
             d="m 433.9,143.8 c 0,1.6 -1,3 -2.8,3.4 -0.7,0.2 -1,0.3 -1.6,0.4 v -5.3 c 0.7,-0.2 1,-0.3 1.6,-0.4 1.8,-0.5 2.8,0.4 2.8,1.9 z m -1,0.3 c 0,-1.2 -0.8,-1.5 -1.8,-1.2 -0.2,0.1 -0.4,0.1 -0.6,0.2 v 3.4 c 0.2,-0.1 0.4,-0.1 0.6,-0.2 1,-0.3 1.8,-1 1.8,-2.2 z"
             id="path5614"
             style="fill:#55121c" />
          <path
             class="st3"
             d="m 438.5,144.3 v 1 c -1.2,0.3 -1.9,0.5 -3.1,0.9 v -5.3 c 1.2,-0.3 1.8,-0.5 3,-0.8 v 1 c -0.8,0.2 -1.2,0.3 -2,0.6 v 1.2 c 0.7,-0.2 1.1,-0.3 1.9,-0.5 v 1 c -0.7,0.2 -1.1,0.3 -1.9,0.5 v 1.2 c 0.8,-0.5 1.3,-0.6 2.1,-0.8 z"
             id="path5616"
             style="fill:#55121c" />
          <path
             class="st3"
             d="m 443.8,142.2 c 0,0.8 -0.6,1.8 -2,2.2 -1,0.3 -1.9,0.1 -2.1,-0.7 0.4,-0.2 0.6,-0.4 1,-0.6 0.1,0.3 0.4,0.6 1.1,0.4 0.5,-0.1 1,-0.5 1,-0.9 0,-0.5 -0.6,-0.4 -1.4,-0.4 -1.1,0 -1.4,-0.4 -1.4,-1.2 0,-1 0.8,-1.8 1.9,-2.1 0.9,-0.2 1.6,0 1.8,0.8 -0.4,0.2 -0.6,0.3 -1,0.5 -0.1,-0.3 -0.3,-0.5 -0.9,-0.4 -0.4,0.1 -0.8,0.4 -0.8,0.9 0,0.6 0.7,0.5 1.2,0.5 1.1,-0.1 1.6,0.1 1.6,1 z"
             id="path5618"
             style="fill:#55121c" />
          <path
             class="st3"
             d="m 449.5,139.5 c 0,1.6 -1,3 -2.8,3.4 -0.7,0.2 -1,0.3 -1.6,0.4 V 138 c 0.7,-0.2 1,-0.3 1.6,-0.4 1.8,-0.5 2.8,0.3 2.8,1.9 z m -1,0.3 c 0,-1.2 -0.8,-1.5 -1.8,-1.2 -0.2,0.1 -0.4,0.1 -0.6,0.2 v 3.4 c 0.2,-0.1 0.4,-0.1 0.6,-0.2 1,-0.3 1.8,-1 1.8,-2.2 z"
             id="path5620"
             style="fill:#55121c" />
          <path
             class="st3"
             d="m 454.1,139.9 v 1 c -1.2,0.3 -1.9,0.5 -3.1,0.9 v -5.3 c 1.2,-0.3 1.8,-0.5 3,-0.8 v 1 c -0.8,0.2 -1.2,0.3 -2,0.6 v 1.2 c 0.7,-0.2 1.1,-0.3 1.9,-0.5 v 1 c -0.7,0.2 -1.1,0.3 -1.9,0.5 v 1.2 c 0.9,-0.4 1.3,-0.5 2.1,-0.8 z"
             id="path5622"
             style="fill:#55121c" />
          <path
             class="st3"
             d="m 435.3,148.4 v 5.3 c -0.4,0.1 -0.6,0.2 -1,0.3 v -4.1 c -0.4,0.4 -0.5,0.5 -0.9,0.9 -0.2,-0.2 -0.3,-0.4 -0.4,-0.6 0.6,-0.6 1,-0.9 1.6,-1.6 0.2,0 0.4,-0.1 0.7,-0.2 z"
             id="path5624"
             style="fill:#55121c" />
          <path
             class="st3"
             d="m 436.8,149.8 c 0,-1.1 0.8,-2.1 1.9,-2.4 1.1,-0.3 1.9,0.3 1.9,1.4 0,0.7 -0.4,1.4 -0.6,1.7 -0.5,0.9 -0.8,1.4 -1.3,2.4 -0.5,0.1 -0.7,0.2 -1.1,0.3 0.5,-0.8 0.8,-1.3 1.2,-2.1 h -0.1 c -1,0.3 -1.9,-0.2 -1.9,-1.3 z m 1,-0.3 c 0,0.5 0.4,0.8 0.9,0.7 0.5,-0.1 0.9,-0.6 0.9,-1.2 0,-0.6 -0.5,-0.8 -0.9,-0.7 -0.4,0.1 -0.9,0.6 -0.9,1.2 z"
             id="path5626"
             style="fill:#55121c" />
          <path
             class="st3"
             d="m 445.7,149.3 c 0,1 -0.8,1.9 -2,2.2 -1.1,0.3 -2,-0.1 -2,-1.1 0,-0.6 0.3,-1.1 0.8,-1.5 -0.4,-0.1 -0.6,-0.5 -0.6,-0.9 0,-0.8 0.6,-1.6 1.8,-2 1.1,-0.3 1.8,0.2 1.8,1 0,0.4 -0.2,0.9 -0.6,1.3 0.5,0.1 0.8,0.4 0.8,1 z m -1,0.2 c 0,-0.5 -0.4,-0.7 -0.9,-0.5 -0.5,0.2 -0.9,0.6 -0.9,1.1 0,0.4 0.3,0.7 0.9,0.5 0.6,-0.2 0.9,-0.7 0.9,-1.1 z m -1.7,-1.7 c 0,0.4 0.4,0.6 0.8,0.5 0.4,-0.1 0.8,-0.4 0.8,-0.9 0,-0.5 -0.4,-0.6 -0.8,-0.5 -0.4,0.1 -0.8,0.4 -0.8,0.9 z"
             id="path5628"
             style="fill:#55121c" />
          <path
             class="st3"
             d="m 450.3,148.6 v 1 c -1.3,0.4 -2,0.6 -3.4,0.9 v -0.8 c 0.5,-0.7 0.8,-1.1 1.3,-1.8 0.5,-0.7 1,-1.4 1,-1.9 0,-0.4 -0.2,-0.6 -0.6,-0.5 -0.5,0.1 -0.7,0.5 -0.7,0.9 -0.4,0 -0.6,0 -1,0 0.2,-0.9 0.9,-1.6 1.8,-1.9 1,-0.3 1.6,0.3 1.6,1.2 0,0.8 -0.6,1.6 -1.9,3.4 0.8,-0.1 1.2,-0.2 1.9,-0.5 z"
             id="path5630"
             style="fill:#55121c" />
        </g>
      </g>
      <g
         id="g5640">
        <path
           class="st3"
           d="m 430.4,94.1 c -0.2,-0.4 -0.9,-0.8 -2,-1.1 -0.8,-0.3 -1.8,-0.5 -3.1,-0.6 -0.2,0 -0.2,0 -0.4,0 -2.5,-0.2 -4.2,-0.8 -4.6,-1.6 0,-0.1 0,-0.1 -0.1,-0.2 -0.4,-0.9 -3.2,-1.6 -6.3,-1.7 h -0.1 c -0.1,0 -0.2,0 -0.2,0 -1.6,0 -3,0.2 -4.2,0.5 -1.7,0.4 -2.5,0.7 -4.1,1.1 -1.1,0.3 -1.7,0.5 -2.9,0.8 -1.5,0.4 -2.2,0.6 -3.6,1 -0.2,0.1 -0.3,0.1 -0.5,0.1 -1.5,0.4 -2.2,0.6 -3.6,1 -1.1,0.3 -1.7,0.5 -2.9,0.8 -1.7,0.4 -2.5,0.7 -4.1,1.1 -1.2,0.3 -2.6,0.8 -4.2,1.2 -0.1,0 -0.2,0.1 -0.2,0.1 h -0.1 c -3.1,0.9 1,1.8 4.1,2.1 0.2,0 0.3,0 0.6,0.1 2.5,0.2 4.2,0.8 4.5,1.6 0,0.1 0,0.1 0,0.1 0.2,0.4 0.7,0.7 1.5,1 0.8,0.4 2,0.6 3.5,0.8 0.2,0 0.3,0 0.6,0.1 2.5,0.2 4.2,0.8 4.5,1.6 0,0.1 0,0.1 0,0.1 0.4,1 3.2,1.7 6.3,1.7 0.1,0 0.2,0 0.3,0 0.7,0 1.4,0 2,-0.1 0.8,-0.1 1.6,-0.2 2.3,-0.4 1.3,-0.4 2,-0.6 3.4,-0.9 1.8,-0.5 2.6,-0.7 4.4,-1.2 1.1,-0.3 1.7,-0.5 2.9,-0.8 0.2,-0.1 0.3,-0.1 0.5,-0.1 1.1,-0.3 1.7,-0.5 2.9,-0.8 1.8,-0.5 2.6,-0.7 4.4,-1.2 1.3,-0.4 2,-0.6 3.4,-0.9 0.7,-0.2 1.5,-0.4 2.3,-0.7 0.6,-0.2 1.3,-0.4 2,-0.6 0.1,0 0.2,-0.1 0.3,-0.1 3.2,-0.9 -1,-1.8 -4.1,-2.1 -0.2,0 -0.2,0 -0.4,0 -2.5,-0.2 -4.2,-0.8 -4.6,-1.6 -0.4,-0.1 -0.4,-0.1 -0.4,-0.2 z"
           id="path5636"
           style="fill:#55121c" />
        <path
           class="st1"
           d="m 424.1,96.2 c 2.7,0.9 2.3,2.2 -3.1,3.6 -5.4,1.4 -8.8,2.2 -8.9,2.2 -0.9,0.2 -1.5,0.2 -2,0.1 -0.4,-0.1 -0.5,-0.3 -0.6,-0.8 -0.1,-0.3 -0.8,-0.6 -2.3,-1.2 -2.2,-0.8 -3.4,-1.2 -5.6,-2 -1.5,-0.6 -2.3,-0.8 -3.4,-0.9 -1.5,-0.1 -2,-0.2 -2.4,-0.3 -0.4,-0.2 -0.3,-0.3 0.6,-0.6 0.1,0 4.6,-1.2 7.4,-1.8 4.3,-1.1 8.8,-1.4 11.5,-0.4 1.8,0.6 2,1.4 0.1,2.1 3.2,-0.8 6.9,-0.7 8.7,0 z m -17,0.7 c 0.9,0.3 1.6,0.4 2.5,0.2 0.1,0 0.4,-0.1 0.4,-0.1 1.5,-0.4 1.3,-0.9 0.1,-1.3 -1.2,-0.4 -3.1,-0.6 -4.6,-0.2 0,0 -0.3,0.1 -0.4,0.1 -0.9,0.2 -0.8,0.4 0.1,0.8 0,-0.1 1.8,0.5 1.9,0.5 z m 11.1,0.7 c -1.5,-0.5 -3.9,-0.6 -5.8,-0.1 0,0 -0.3,0.1 -0.5,0.1 -1.3,0.3 -1.4,0.5 -0.3,0.9 0.2,0.1 2.3,0.8 2.4,0.8 1.1,0.4 1.6,0.4 2.9,0.1 0.1,0 0.5,-0.1 0.5,-0.1 2,-0.4 2.4,-1.1 0.8,-1.7 z"
           id="path5638"
           style="fill:#fbc009" />
      </g>
    </g>
  </g>
</svg>
